<svg width="1736" height="1920" viewBox="0 0 1736 1920" fill="none" xmlns="http://www.w3.org/2000/svg">
<g clip-path="url(#clip0_10_63)">
<path d="M1305 4.0001C1306.53 4.32156 1306.53 4.32156 1308.09 4.64952C1345.75 12.7328 1379.85 30.2945 1410 54.0001C1411 54.7813 1411.99 55.5624 1413.02 56.3673C1424.85 65.868 1435.64 76.4726 1446.34 87.2079C1448.32 89.199 1450.32 91.1847 1452.31 93.17C1458.42 99.2768 1464.44 105.382 1470 112C1471.04 113.192 1472.09 114.382 1473.14 115.57C1479.92 123.304 1486.44 131.181 1492.71 139.331C1493.95 140.937 1495.2 142.535 1496.45 144.133C1519.03 173.148 1538.75 204.115 1557 236C1557.45 236.787 1557.9 237.574 1558.37 238.385C1566.34 252.362 1573.67 266.681 1581 281C1581.74 282.431 1581.74 282.431 1582.49 283.892C1619.96 356.758 1648.17 437.388 1663 518C1663.22 519.203 1663.44 520.406 1663.67 521.646C1666.03 534.896 1667.36 547.974 1667.5 561.438C1667.52 562.604 1667.54 563.77 1667.56 564.972C1667.46 578.055 1663.94 589.541 1654.96 599.188C1645.76 608.015 1635.48 610.404 1623.01 610.274C1591.44 608.7 1564.16 586.331 1541 567C1540.37 566.476 1539.74 565.952 1539.09 565.412C1532.25 559.7 1525.66 553.888 1519.48 547.449C1517.44 545.437 1515.38 543.57 1513.21 541.703C1508.94 537.997 1504.93 534.074 1500.94 530.063C1500.27 529.398 1499.6 528.734 1498.91 528.049C1495.74 524.871 1492.67 521.661 1489.75 518.246C1484.82 512.529 1479.37 507.302 1474 502C1461.93 490.083 1461.93 490.083 1456.54 483.77C1454.01 480.862 1451.3 478.149 1448.56 475.438C1447.71 474.591 1447.71 474.591 1446.84 473.727C1442.7 469.638 1438.45 465.75 1434 462C1433.05 461.16 1432.1 460.319 1431.12 459.453C1411.22 441.991 1389.47 430.333 1362.38 431.789C1356.62 432.3 1351.37 433.883 1346 436C1344.98 436.401 1343.95 436.802 1342.9 437.215C1327.7 443.992 1317.28 456.661 1311.04 471.848C1308.76 478.743 1307.61 485.424 1307.63 492.684C1307.64 493.9 1307.64 493.9 1307.64 495.141C1307.84 505.303 1309.88 515.129 1311.88 525.063C1312.61 528.802 1313.34 532.543 1314.05 536.285C1314.32 537.641 1314.32 537.641 1314.58 539.025C1321.73 577.167 1320.36 616.746 1312.45 654.637C1311.95 657.247 1311.9 659.658 1311.94 662.313C1311.95 663.637 1311.95 663.637 1311.96 664.988C1311.98 665.652 1311.99 666.316 1312 667C1312.69 667.271 1313.38 667.542 1314.09 667.822C1317.29 669.116 1320.45 670.477 1323.61 671.852C1324.99 672.45 1326.37 673.048 1327.75 673.645C1328.49 673.966 1329.23 674.286 1329.99 674.617C1346.84 681.926 1363.71 689.17 1380.59 696.398C1396.5 703.209 1412.41 710.024 1428.28 716.926C1439.94 721.991 1451.63 726.986 1463.32 731.989C1484.03 740.853 1504.72 749.765 1525.37 758.763C1527.23 759.573 1529.09 760.382 1530.95 761.192C1532.32 761.787 1532.32 761.787 1533.71 762.394C1543.98 766.868 1554.27 771.311 1564.56 775.75C1565.47 776.144 1566.39 776.537 1567.33 776.942C1570.93 778.5 1574.54 780.057 1578.15 781.615C1588.75 786.188 1599.35 790.768 1609.95 795.353C1611.43 795.997 1612.92 796.641 1614.41 797.285C1615.13 797.598 1615.86 797.911 1616.6 798.233C1620.78 800.04 1624.95 801.842 1629.13 803.641C1719.75 842.636 1719.75 842.636 1733 868C1733.36 868.681 1733.72 869.361 1734.09 870.063C1738.36 880.138 1737.25 894.274 1733.31 904.211C1728.34 914.781 1722.08 922.733 1714 931C1713.34 931.719 1712.69 932.439 1712.01 933.18C1674.12 973.665 1602.3 982.093 1550.56 988.188C1549.27 988.343 1547.98 988.497 1546.64 988.657C1519.18 991.805 1491.75 992.328 1464.14 992.261C1459.39 992.249 1454.64 992.256 1449.88 992.268C1422.61 992.324 1395.52 991.721 1368.44 988.125C1367.1 987.955 1365.77 987.785 1364.44 987.614C1355.74 986.481 1347.12 985.07 1338.54 983.219C1333.58 982.17 1329.07 981.839 1324 982C1324.54 990.091 1325.55 997.961 1327.04 1005.93C1327.24 1007.03 1327.44 1008.13 1327.65 1009.27C1328.3 1012.8 1328.96 1016.34 1329.62 1019.88C1329.85 1021.08 1330.08 1022.29 1330.31 1023.54C1336.99 1059.22 1344.21 1095.05 1360 1128C1360.39 1128.81 1360.78 1129.62 1361.17 1130.46C1371.51 1151.75 1385.84 1169.83 1402 1187C1402.92 1187.99 1402.92 1187.99 1403.87 1189C1408.84 1194.15 1414.39 1198.57 1420 1203C1420.61 1203.49 1421.22 1203.98 1421.85 1204.48C1443.86 1221.98 1467.78 1235.84 1494 1246C1494.88 1246.34 1495.76 1246.69 1496.66 1247.04C1509.47 1251.99 1522.47 1256.19 1535.62 1260.14C1536.84 1260.5 1538.07 1260.87 1539.33 1261.25C1545.52 1263.11 1551.72 1264.95 1557.92 1266.76C1583.05 1274.17 1607.27 1282.5 1621.5 1306.18C1629.74 1321.66 1631.02 1339.23 1626 1355.94C1621.7 1369.11 1614.58 1381.18 1606 1392C1605.37 1392.83 1604.74 1393.66 1604.1 1394.52C1594.81 1406.43 1583.7 1417.53 1571.8 1426.81C1569.75 1428.41 1567.79 1430.03 1565.83 1431.72C1506.36 1482.59 1429.86 1508.68 1352.63 1514.35C1351.67 1514.43 1350.72 1514.5 1349.73 1514.57C1348.47 1514.66 1348.47 1514.66 1347.18 1514.75C1344.82 1514.94 1344.82 1514.94 1342 1516C1341.47 1523.04 1343.42 1529.36 1345.23 1536.12C1345.57 1537.43 1345.91 1538.75 1346.26 1540.06C1346.99 1542.87 1347.73 1545.68 1348.47 1548.48C1350.23 1555.18 1351.97 1561.88 1353.71 1568.58C1354.31 1570.88 1354.9 1573.17 1355.5 1575.47C1359.04 1589.1 1362.49 1602.75 1365.87 1616.42C1366.44 1618.76 1367.03 1621.1 1367.61 1623.44C1372.67 1643.73 1377.6 1664.3 1379.81 1685.13C1379.93 1686.21 1380.04 1687.3 1380.16 1688.41C1384.41 1732.67 1378.92 1781.3 1350.99 1817.59C1347.46 1821.86 1343.8 1825.97 1340 1830C1339.33 1830.74 1338.65 1831.48 1337.96 1832.24C1309.45 1862.35 1266.78 1872.66 1226.71 1873.92C1182.31 1874.78 1141.72 1860.5 1102.32 1841.31C1076.3 1828.63 1050.08 1818.45 1021 1827C1004.24 1832.97 990.043 1842.9 975.651 1853.12C968.13 1858.45 960.572 1863.74 953 1869C952.037 1869.67 952.037 1869.67 951.055 1870.36C908.329 1900.05 860.25 1920.5 807.625 1920.38C806.747 1920.37 805.87 1920.37 804.966 1920.37C790.332 1920.32 776.29 1919.37 762 1916C760.985 1915.76 759.97 1915.53 758.925 1915.28C710.298 1903.6 673.514 1878.07 642.351 1839.66C640.841 1837.8 639.329 1835.95 637.816 1834.09C633.097 1828.29 628.381 1822.49 623.75 1816.63C612.935 1803.11 600.415 1789.17 582.379 1786.21C562.596 1784.43 545.254 1791.44 526.885 1797.91C520.748 1800.07 514.602 1802.2 508.457 1804.33C506.672 1804.95 506.672 1804.95 504.852 1805.59C440.387 1827.98 370.878 1838.72 306.687 1808.12C303.413 1806.49 300.201 1804.76 297 1803C296.051 1802.49 296.051 1802.49 295.083 1801.96C284.994 1796.44 276.44 1789.78 268 1782C267.179 1781.26 266.358 1780.52 265.512 1779.76C240.568 1756.24 226.855 1719.93 225.797 1686.09C225.498 1666.7 228.004 1648.02 231.926 1629.05C232.072 1628.34 232.219 1627.63 232.37 1626.9C236.531 1606.77 241.49 1586.83 246.388 1566.88C257.658 1521.89 257.658 1521.89 265.941 1476.28C266.319 1473.64 266.715 1471 267.111 1468.37C268.361 1459.88 269.474 1451.61 269 1443C268.181 1442.96 267.363 1442.91 266.519 1442.86C197.329 1438.98 130.256 1420.11 78.6249 1371.45C76.5433 1369.51 74.4339 1367.64 72.2773 1365.79C67.5126 1361.63 63.0285 1357.22 58.5624 1352.75C57.304 1351.49 57.304 1351.49 56.0202 1350.21C51.0716 1345.21 46.362 1340.2 42.082 1334.62C40.2029 1332.26 38.2456 1330.04 36.2226 1327.8C32.0901 1323.18 28.3196 1318.35 24.6249 1313.38C23.6544 1312.07 23.6544 1312.07 22.6642 1310.74C20.7658 1308.16 18.8796 1305.59 16.9999 1303C16.4851 1302.29 15.9703 1301.59 15.4399 1300.86C3.25026 1283.98 -1.49314 1267.87 -5.86808e-05 1247C2.37637 1234.15 10.0322 1224.12 18.9999 1215C19.6148 1214.37 20.2297 1213.74 20.8632 1213.1C34.2437 1200.46 53.6061 1193.46 70.8581 1187.92C73.2008 1187.16 75.5391 1186.4 77.8766 1185.63C81.068 1184.58 84.2603 1183.53 87.4536 1182.49C136.255 1166.52 182.963 1147.09 222 1113C222.739 1112.36 223.477 1111.72 224.238 1111.07C226.17 1109.39 228.086 1107.7 230 1106C230.719 1105.37 231.439 1104.75 232.18 1104.1C237.525 1099.39 242.639 1094.47 247.687 1089.44C248.305 1088.82 248.923 1088.21 249.559 1087.58C253.907 1083.22 258.003 1078.68 262 1074C262.545 1073.36 263.09 1072.72 263.652 1072.07C296.064 1033.8 320.633 992.188 331.63 943.11C345.676 880.458 366.94 818.845 396.205 761.663C396.686 760.717 397.168 759.771 397.664 758.797C398.305 757.549 398.305 757.549 398.959 756.276C399.918 754.18 400.531 752.251 401 750C394.268 746.437 387.278 743.637 380.208 740.829C364.888 734.73 349.893 728.082 335 721C332.951 720.036 330.901 719.073 328.852 718.109C304.725 706.711 281.054 694.44 258 681C257.101 680.477 257.101 680.477 256.184 679.943C239.113 670.001 222.237 659.846 205.804 648.871C202.826 646.884 199.839 644.91 196.852 642.938C179.814 631.667 163.129 620.086 146.996 607.551C145.105 606.082 143.209 604.619 141.312 603.156C133.595 597.178 126.146 590.933 118.776 584.534C116.957 582.963 115.125 581.407 113.289 579.856C107.566 575.011 101.99 570.158 96.7656 564.77C95.0362 563.037 93.243 561.457 91.3749 559.875C76.2596 546.855 54.5036 528.096 52.8437 507.016C52.4809 498.249 55.0419 490.513 60.9999 484C74.3657 471.136 97.7321 472.664 114.942 472.925C125.12 473.176 135.28 473.893 145.437 474.563C146.783 474.65 148.129 474.737 149.475 474.823C194.95 477.767 240.353 481.742 285.759 485.587C296.276 486.477 306.794 487.365 317.312 488.25C318.852 488.38 318.852 488.38 320.423 488.512C356.096 491.509 356.096 491.509 391.812 493.938C393.154 494.019 393.154 494.019 394.523 494.101C419.053 495.551 443.577 496.167 468.148 496.203C470.152 496.208 472.155 496.212 474.159 496.216C479.699 496.228 485.239 496.235 490.78 496.239C497.896 496.244 505.012 496.261 512.129 496.29C517.688 496.312 523.247 496.322 528.806 496.323C532.105 496.324 535.404 496.331 538.703 496.348C542.356 496.365 546.008 496.363 549.662 496.357C550.742 496.366 551.822 496.375 552.935 496.384C560.014 496.453 560.014 496.453 566 493C568.87 486.83 570.369 480.184 572.125 473.625C585.066 426.692 605.889 375.252 643.879 342.629C647.949 339.115 651.612 335.329 655.25 331.375C655.893 330.683 656.535 329.991 657.197 329.277C658.506 327.866 659.814 326.453 661.119 325.038C662.872 323.139 664.63 321.244 666.391 319.352C671.098 314.283 675.766 309.189 680.293 303.957C682.336 301.615 684.417 299.307 686.5 297C689.19 294.019 691.863 291.028 694.5 288C698.615 283.286 702.782 278.623 707 274C707.526 273.422 708.052 272.844 708.594 272.249C717.616 262.37 727.037 253.059 736.864 243.984C739.005 241.995 741.128 239.99 743.246 237.977C749.82 231.737 756.411 225.68 763.504 220.031C766.027 217.978 768.419 215.828 770.812 213.625C775.781 209.104 781.008 204.989 786.312 200.875C789.361 198.51 792.365 196.096 795.361 193.666C841.159 156.593 892.02 126.095 943.999 98.5924C946.581 97.2224 949.156 95.8406 951.727 94.4493C963.283 88.2112 975.099 82.5487 987 77.0001C987.606 76.7174 988.211 76.4347 988.835 76.1434C1009.63 66.4424 1030.61 57.3224 1052 49.0001C1052.68 48.7365 1053.35 48.4728 1054.05 48.2012C1092.27 33.3502 1131.22 20.9413 1171 11.0001C1171.72 10.8183 1172.45 10.6366 1173.19 10.4493C1215.95 -0.265196 1261.44 -5.46286 1305 4.0001ZM1188 46.0001C1186.72 46.3172 1185.44 46.6343 1184.12 46.961C1100.11 67.9548 1017.59 100.225 931.47 148.56C928.929 150.042 926.37 151.488 923.805 152.926C906.094 162.871 888.765 173.527 872 185C870.567 185.97 869.133 186.94 867.699 187.91C836.792 208.87 807.099 231.608 779.477 256.77C777.385 258.653 775.275 260.508 773.152 262.356C761.995 272.105 751.424 282.477 740.937 292.938C740.445 293.428 739.952 293.918 739.445 294.422C734.311 299.535 729.279 304.692 724.563 310.197C722.548 312.521 720.438 314.743 718.319 316.972C706.372 327.976 706.372 327.976 699 341C700.117 341.04 701.234 341.079 702.385 341.12C726.886 342.01 751.273 343.418 775.688 345.679C776.64 345.766 777.591 345.853 778.572 345.942C780.332 346.104 782.092 346.27 783.851 346.441C793.944 347.883 793.944 347.883 803.375 345.609C803.911 344.996 804.447 344.382 805 343.75C809.794 338.357 816.779 335.952 823.855 335.399C825.632 335.359 827.41 335.354 829.187 335.375C830.2 335.384 831.213 335.393 832.257 335.403C909.442 337.57 995.524 365.199 1066.62 393.875C1067.45 394.208 1068.28 394.541 1069.14 394.884C1078.85 398.961 1088.62 403.741 1093.25 413.688C1094 417 1094 417 1094.41 419.902C1094.57 420.966 1094.72 422.029 1094.88 423.125C1095 424.138 1095.12 425.151 1095.24 426.195C1096.18 429.648 1097.28 430.704 1100 433C1103 434.443 1103 434.443 1106.47 435.602C1107.13 435.835 1107.78 436.069 1108.46 436.31C1110.65 437.092 1112.86 437.859 1115.06 438.625C1116.64 439.184 1118.22 439.744 1119.79 440.304C1125.19 442.218 1130.6 444.109 1136 446C1172.65 458.841 1208.72 471.943 1244.11 487.984C1250.09 490.693 1256.07 493.376 1262.08 496.016C1262.76 496.318 1263.45 496.62 1264.15 496.931C1266.97 498.378 1266.97 498.378 1270 499C1269.56 488.077 1267.53 477.722 1265.25 467.063C1264.97 465.708 1264.97 465.708 1264.68 464.326C1262.16 452.375 1259.43 440.489 1256.51 428.629C1256.22 427.422 1255.92 426.215 1255.62 424.971C1254.16 419.03 1252.68 413.094 1251.17 407.164C1245.32 383.871 1245.32 383.871 1247 376C1249.35 372.163 1249.35 372.163 1252.12 371.469C1253.27 371.484 1253.27 371.484 1254.44 371.5C1255.2 371.49 1255.96 371.479 1256.75 371.469C1259.86 372.203 1260.94 373.571 1263 376C1264.17 378.769 1264.17 378.769 1265.12 382.027C1265.49 383.274 1265.87 384.521 1266.25 385.805C1266.65 387.182 1267.04 388.56 1267.44 389.938C1267.86 391.368 1268.28 392.798 1268.7 394.228C1269.89 398.242 1271.05 402.26 1272.21 406.28C1273.05 409.175 1273.89 412.069 1274.73 414.962C1278.51 427.968 1282.27 440.981 1286 454C1288.57 451.426 1288.91 449.312 1289.94 445.813C1297.26 422.728 1310.21 398.307 1327.75 381.336C1330.23 379.3 1330.23 379.3 1330 377C1330.58 376.745 1331.16 376.49 1331.75 376.227C1334.23 374.876 1335.91 373.328 1337.94 371.375C1347.11 363.092 1361.32 353.001 1374.06 352.375C1378 353 1378 353 1380.5 354.688C1382.69 358.065 1383.32 360.387 1382.54 364.359C1380.18 368.407 1376.6 369.75 1372.5 371.813C1361.34 377.724 1352.73 384.886 1344 394C1347.35 395.258 1350.17 394.774 1353.65 394.275C1386.82 390.39 1419.74 401.13 1445.93 421.504C1449.56 424.47 1453.08 427.558 1456.56 430.7C1458.39 432.35 1460.26 433.955 1462.12 435.563C1465.35 438.397 1468.52 441.287 1471.69 444.188C1472.19 444.647 1472.69 445.107 1473.21 445.58C1476.01 448.15 1478.79 450.736 1481.55 453.34C1482.14 453.888 1482.73 454.436 1483.33 455.001C1484.46 456.065 1485.6 457.132 1486.72 458.204C1489.14 460.466 1490.82 461.939 1494 463C1495.68 464.926 1495.68 464.926 1497.44 467.313C1499.21 469.709 1500.9 471.901 1503.04 473.981C1505 476 1505 476 1506.33 478.326C1508.16 481.253 1510.18 483.389 1512.64 485.801C1513.55 486.696 1514.45 487.591 1515.39 488.514C1516.34 489.447 1517.3 490.38 1518.25 491.313C1523.83 496.784 1529.3 502.238 1534.38 508.175C1537.1 511.239 1540.1 513.987 1543.12 516.75C1543.77 517.347 1544.42 517.944 1545.09 518.559C1546.41 519.783 1547.74 521.005 1549.07 522.226C1550.88 523.893 1552.68 525.571 1554.48 527.254C1561.1 533.456 1567.87 539.372 1575 545C1576.03 545.824 1577.06 546.648 1578.12 547.496C1587.91 555.256 1598.26 561.723 1609.38 567.438C1610.03 567.78 1610.68 568.122 1611.36 568.475C1615.54 570.568 1619.25 571.749 1624 572C1626.95 569.83 1627.84 568.478 1629 565C1629.97 550.299 1627.93 536.375 1625 522C1624.79 520.963 1624.79 520.963 1624.57 519.904C1607.86 438.381 1578.36 360.741 1524.54 256.662C1522.98 253.959 1521.44 251.242 1519.91 248.52C1514.02 238.046 1507.87 227.829 1501.21 217.824C1500.12 216.18 1499.04 214.53 1497.96 212.879C1488.52 198.534 1478.43 184.638 1468 171C1467.54 170.401 1467.09 169.802 1466.61 169.185C1456.7 156.249 1445.96 144.051 1435 132C1434.24 131.151 1433.49 130.301 1432.71 129.426C1426.61 122.646 1420.25 116.146 1413.81 109.688C1412.55 108.416 1412.55 108.416 1411.26 107.118C1406.33 102.205 1401.3 97.5089 1396 93.0001C1395.07 92.1919 1394.15 91.3836 1393.19 90.5509C1334 40.1579 1262.72 27.4718 1188 46.0001ZM657.055 380.66C655.985 382.12 654.925 383.588 653.875 385.063C653.309 385.852 652.744 386.641 652.161 387.454C646.649 395.282 641.825 403.442 637.205 411.82C636.118 413.787 635.008 415.738 633.891 417.688C625.076 433.307 618.76 450.227 613.062 467.188C612.697 468.273 612.332 469.358 611.955 470.476C606.94 482.806 606.94 482.806 607 495C610.334 495.897 613.606 496.169 617.045 496.326C618.031 496.373 619.017 496.42 620.033 496.469C621.096 496.516 622.159 496.564 623.254 496.613C625.557 496.725 627.861 496.837 630.164 496.95C631.975 497.038 631.975 497.038 633.821 497.128C668.862 498.86 668.862 498.86 685.562 500.75C686.242 500.827 686.921 500.903 687.621 500.982C696.881 502.051 706.076 503.468 715.277 504.953C716.332 505.122 717.387 505.29 718.474 505.463C723.698 506.298 728.916 507.157 734.127 508.066C736.022 508.378 737.917 508.689 739.812 509C740.684 509.161 741.555 509.322 742.452 509.488C747.223 510.313 747.223 510.313 751.508 508.392C753.189 505.697 753.686 503.87 754.055 500.723C754.259 499.139 754.259 499.139 754.468 497.524C754.602 496.382 754.736 495.24 754.875 494.063C759.553 459.1 768.66 425.55 780.516 392.405C780.819 391.545 781.123 390.685 781.436 389.798C782.009 388.175 782.591 386.555 783.183 384.938C784.507 381.173 785.22 378.812 784 375C776.472 373.062 768.937 372.286 761.211 371.622C759.097 371.441 756.985 371.249 754.873 371.057C737.5 369.498 720.182 368.771 702.738 368.705C700.609 368.693 698.479 368.673 696.349 368.643C693.213 368.601 690.078 368.585 686.941 368.574C686.005 368.557 685.068 368.539 684.103 368.521C673.146 368.557 663.873 371.93 657.055 380.66ZM826.311 375.523C821.449 380.84 818.959 386.044 816.625 392.813C816.251 393.856 815.877 394.899 815.492 395.974C814.307 399.309 813.152 402.654 812 406C811.62 407.079 811.241 408.157 810.85 409.268C800.136 439.745 787.564 475.866 786.687 508.625C786.65 509.545 786.613 510.466 786.574 511.414C787.151 514.917 788.227 515.791 791 518C793.731 518.893 796.275 519.574 799.071 520.16C799.886 520.343 800.702 520.526 801.543 520.715C804.257 521.321 806.976 521.907 809.695 522.492C811.617 522.918 813.538 523.345 815.459 523.773C819.549 524.682 823.64 525.583 827.734 526.476C837.358 528.579 846.971 530.729 856.586 532.874C859.782 533.586 862.978 534.297 866.174 535.008C882.696 538.685 899.178 542.499 915.625 546.5C916.754 546.775 917.882 547.049 919.045 547.332C939.977 552.433 960.867 557.704 981.734 563.063C983.134 563.422 983.134 563.422 984.563 563.788C989.42 565.043 994.26 566.344 999.088 567.707C1000.08 567.986 1001.08 568.265 1002.1 568.553C1003.98 569.084 1005.87 569.624 1007.75 570.172C1012.6 571.541 1016.9 572.502 1022 572C1027.88 567.131 1029.77 559.564 1032.25 552.563C1032.6 551.58 1032.6 551.58 1032.96 550.577C1043.9 520.154 1051.54 488.812 1057.5 457.063C1057.64 456.354 1057.77 455.645 1057.91 454.914C1058.3 452.894 1058.67 450.872 1059.03 448.848C1059.35 447.115 1059.35 447.115 1059.67 445.348C1060.19 440.062 1059.8 436.25 1056.92 431.758C1053.93 428.548 1050.41 427.202 1046.31 425.875C1044.59 425.283 1042.87 424.69 1041.16 424.098C1040.19 423.77 1039.22 423.443 1038.22 423.106C1034.66 421.884 1031.13 420.601 1027.59 419.309C1000.09 409.296 844.122 359.465 826.311 375.523ZM1092.38 461.268C1090.05 464.198 1089.71 467.829 1089.02 471.426C1088.85 472.272 1088.67 473.119 1088.49 473.991C1088.12 475.813 1087.75 477.636 1087.39 479.46C1086.42 484.275 1085.4 489.081 1084.39 493.887C1084.18 494.846 1083.98 495.806 1083.77 496.794C1079.19 518.343 1072.85 539.227 1065.52 559.981C1065.09 561.172 1064.67 562.364 1064.24 563.591C1063.43 565.815 1062.59 568.027 1061.71 570.225C1061.33 571.199 1060.94 572.173 1060.55 573.176C1060.2 574.017 1059.85 574.858 1059.5 575.724C1058.84 577.979 1058.84 577.979 1059.47 580.151C1061.75 582.907 1064.6 583.499 1067.93 584.41C1068.64 584.618 1069.34 584.825 1070.08 585.039C1072.38 585.709 1074.69 586.355 1077 587C1078.51 587.431 1080.02 587.863 1081.52 588.297C1084.7 589.204 1087.87 590.102 1091.05 590.993C1147.2 606.756 1202.52 625.13 1257.22 645.344C1258.19 645.7 1259.15 646.057 1260.15 646.424C1261.03 646.75 1261.9 647.076 1262.81 647.412C1263.57 647.696 1264.34 647.98 1265.13 648.273C1267 649 1267 649 1269 650C1272 650.25 1272 650.25 1275 650C1277.93 647.072 1277.92 643.637 1278.5 639.688C1278.63 638.837 1278.75 637.987 1278.88 637.111C1279.27 634.409 1279.64 631.706 1280 629C1280.11 628.18 1280.22 627.36 1280.33 626.515C1283.06 604.948 1282.65 583.292 1280.62 561.688C1280.56 561.006 1280.5 560.324 1280.43 559.622C1279.46 545.335 1279.46 545.335 1273 533C1228.09 502.382 1169.77 485.487 1118.95 467.737C1115.63 466.578 1112.32 465.401 1109.02 464.208C1108.24 463.926 1107.45 463.645 1106.64 463.354C1105.17 462.826 1103.7 462.294 1102.24 461.758C1097.17 459.62 1097.17 459.62 1092.38 461.268ZM108 506C110.662 507.775 112.281 508.506 115.273 509.35C116.145 509.599 117.017 509.849 117.915 510.105C119.346 510.506 119.346 510.506 120.805 510.914C122.31 511.343 122.31 511.343 123.847 511.781C126.033 512.404 128.22 513.024 130.408 513.643C136.38 515.335 142.346 517.048 148.312 518.762C149.546 519.116 150.78 519.47 152.051 519.835C164.02 523.28 175.954 526.831 187.875 530.438C188.926 530.756 189.978 531.074 191.061 531.401C209.772 537.066 228.453 542.83 247.135 548.59C335.709 575.899 424.807 601.188 514.155 625.835C519.208 627.229 524.259 628.625 529.31 630.022C591.395 647.201 653.742 662.87 716.75 676.305C719.833 676.964 722.913 677.629 725.994 678.297C798.695 694.045 872.129 706.194 945.486 718.416C1045.35 735.054 1144.38 753.131 1272.61 784.766C1387.87 813.326 1387.87 813.326 1503.81 838.938C1504.99 839.184 1506.18 839.43 1507.39 839.684C1548.07 848.122 1589.04 855.139 1629.95 862.37C1635.68 863.384 1641.41 864.404 1647.15 865.426C1651.64 866.224 1656.13 867.018 1660.62 867.811C1662.74 868.186 1664.85 868.563 1666.97 868.942C1669.89 869.463 1672.81 869.978 1675.73 870.491C1676.59 870.645 1677.44 870.799 1678.32 870.958C1682.61 871.703 1686.63 872.17 1691 872C1688.68 869.406 1686.43 868.067 1683.29 866.609C1682.31 866.156 1681.33 865.702 1680.33 865.234C1679.25 864.744 1678.17 864.255 1677.06 863.75C1675.91 863.225 1674.77 862.7 1673.59 862.159C1660.36 856.148 1646.92 850.651 1633.5 845.11C1623.67 841.044 1613.86 836.896 1604.06 832.75C1602.15 831.943 1600.25 831.137 1598.34 830.33C1594.48 828.7 1590.63 827.07 1586.77 825.44C1578.28 821.85 1569.79 818.267 1561.3 814.682C1558.5 813.5 1555.7 812.318 1552.9 811.135C1544.37 807.533 1535.84 803.931 1527.31 800.335C1505.6 791.184 1483.9 781.996 1462.26 772.687C1457.39 770.595 1452.52 768.515 1447.64 766.442C1421.23 755.199 1395.01 743.512 1368.81 731.783C1325.41 712.358 1281.69 693.68 1236.9 677.679C1234.98 676.994 1233.07 676.308 1231.15 675.621C1205.54 666.444 1179.79 657.671 1154 649C1153.17 648.722 1152.35 648.444 1151.5 648.157C1105.64 632.707 1059.07 620.156 1012 609C1010.09 608.548 1008.18 608.096 1006.28 607.643C1005.36 607.426 1004.45 607.21 1003.51 606.986C998.796 605.869 994.085 604.747 989.375 603.625C988.413 603.397 987.452 603.168 986.461 602.932C965.202 597.869 944.028 592.474 922.848 587.095C786.658 552.013 786.658 552.013 575.107 532.353C565.501 532.502 555.895 532.617 546.289 532.734C545.313 532.747 544.337 532.759 543.332 532.771C492.871 533.389 442.408 533.747 392 531C390.839 530.937 389.678 530.874 388.482 530.809C324.659 527.286 261.174 520.879 197.669 513.77C194.954 513.466 192.239 513.163 189.524 512.861C181.008 511.91 172.494 510.945 163.984 509.938C159.957 509.463 155.929 508.997 151.901 508.531C150.005 508.31 148.109 508.084 146.213 507.854C133.413 506.302 120.893 505.727 108 506ZM151 559C152.54 562.956 155.243 565.242 158.437 567.875C159.002 568.346 159.567 568.818 160.149 569.303C173.503 580.283 187.825 590.12 202 600C202.634 600.444 203.268 600.888 203.921 601.345C238.529 625.539 274.707 647.22 312 667C313.101 667.588 314.202 668.175 315.337 668.78C339.944 681.874 365.183 693.39 390.875 704.188C391.514 704.456 392.152 704.725 392.81 705.002C396.861 706.701 400.925 708.361 405 710C406.54 710.636 406.54 710.636 408.11 711.284C414.943 714.162 414.943 714.162 422 713C424.089 710.676 424.089 710.676 425.687 707.563C426.374 706.368 427.062 705.174 427.75 703.981C428.112 703.337 428.474 702.692 428.848 702.029C430.889 698.435 433.038 694.905 435.187 691.375C435.872 690.248 435.872 690.248 436.57 689.098C441.11 681.69 446.003 674.538 450.957 667.402C451.453 666.682 451.949 665.961 452.459 665.218C453.541 663.661 454.641 662.117 455.755 660.583C456.594 659.399 456.594 659.399 457.449 658.192C458.218 657.129 458.218 657.129 459.003 656.045C460.175 654.077 460.175 654.077 459.851 651.995C459.167 649.83 459.167 649.83 457.028 648.892C456.155 648.608 455.283 648.324 454.383 648.031C453.381 647.7 452.379 647.369 451.347 647.027C450.242 646.688 449.138 646.349 448 646C446.863 645.65 445.726 645.3 444.555 644.939C440.665 643.769 436.766 642.634 432.863 641.508C431.396 641.082 429.929 640.655 428.463 640.228C425.358 639.325 422.252 638.424 419.145 637.525C414.254 636.109 409.363 634.687 404.473 633.265C394.983 630.506 385.492 627.752 376 625C351.224 617.816 326.458 610.603 301.75 603.188C300.661 602.861 299.573 602.534 298.451 602.198C285.647 598.344 272.896 594.353 260.195 590.172C258.988 589.775 257.78 589.377 256.536 588.968C250.704 587.043 244.878 585.104 239.058 583.143C236.973 582.449 234.889 581.754 232.805 581.059C231.851 580.733 230.897 580.406 229.915 580.07C229.043 579.781 228.171 579.491 227.273 579.193C226.516 578.937 225.758 578.681 224.978 578.418C222.804 577.785 222.804 577.785 220 579C274.586 604.961 330.629 628.976 389.437 643.637C390.329 643.86 391.221 644.084 392.14 644.314C396.553 645.417 400.969 646.5 405.395 647.551C407.007 647.947 408.619 648.342 410.23 648.738C410.973 648.908 411.715 649.077 412.48 649.252C415.618 650.036 417.674 650.67 419.972 653.001C421.847 656.649 421.04 660.16 420 664C418.5 666.063 418.5 666.063 416 667C408.036 667.501 400.86 665.928 393.125 664.125C392.457 663.971 391.79 663.817 391.102 663.659C350.984 654.377 311.734 641.472 274 625C273.108 624.614 272.217 624.229 271.298 623.831C230.795 606.252 192.685 584.655 155.233 561.36C153.071 560.001 153.071 560.001 151 559ZM494 669C491.553 672.015 489.354 675.155 487.187 678.375C486.588 679.25 485.988 680.125 485.37 681.026C483.564 683.674 481.778 686.334 480 689C479.227 690.16 479.227 690.16 478.437 691.343C467.537 707.784 457.679 724.819 448 742C447.517 742.854 447.033 743.708 446.535 744.589C425.248 782.339 408.445 822.192 394 863C393.75 863.706 393.5 864.411 393.242 865.138C361.097 956.105 341.151 1052.04 315.227 1337.55C312.435 1398.31 308.699 1459.2 297 1519C296.873 1519.66 296.746 1520.31 296.615 1520.98C293.244 1538.3 289.169 1555.44 284.918 1572.56C284.734 1573.3 284.55 1574.04 284.361 1574.81C282.493 1582.33 280.619 1589.86 278.712 1597.38C274.919 1612.35 271.38 1627.32 268.539 1642.51C268.414 1643.18 268.289 1643.84 268.16 1644.53C262.252 1676.18 263.45 1709.19 281.84 1736.76C302.728 1766.46 333.455 1780.13 368.352 1786.42C374.906 1787.46 381.288 1788.16 387.926 1788.24C388.662 1788.25 389.399 1788.26 390.158 1788.27C433.957 1788.73 472.454 1776.66 513.196 1761.97C522.454 1758.63 531.702 1755.34 541.125 1752.5C541.888 1752.27 542.651 1752.04 543.436 1751.8C550.666 1749.68 558.044 1748.01 565.562 1747.38C566.389 1747.3 567.215 1747.23 568.066 1747.15C594.224 1745.82 617.577 1754.49 637 1772C642.809 1777.32 647.767 1783.21 652.678 1789.35C654.134 1791.17 655.603 1792.97 657.074 1794.77C661.85 1800.62 666.609 1806.47 671.219 1812.45C676.629 1819.45 682.364 1826.03 688.488 1832.42C689.494 1833.47 690.494 1834.53 691.488 1835.59C715.851 1861.54 752.974 1876.59 788 1881C789.274 1881.17 789.274 1881.17 790.574 1881.34C828.526 1885.53 865.789 1874.84 899 1857C899.595 1856.68 900.189 1856.36 900.802 1856.03C915.958 1847.8 929.822 1837.75 943.749 1827.63C969.271 1809.1 997.606 1789.04 1030 1786C1031.17 1785.87 1032.34 1785.74 1033.54 1785.6C1066.02 1782.67 1094.11 1794.29 1122.81 1807.94C1170.84 1830.77 1223.43 1844.8 1275.59 1826.43C1295.77 1818.86 1311.98 1805.86 1324 1788C1324.55 1787.19 1325.1 1786.38 1325.67 1785.55C1330.19 1778.51 1333.16 1770.83 1336 1763C1336.57 1761.42 1336.57 1761.42 1337.16 1759.82C1358.45 1696.26 1327.55 1617.41 1310.83 1555.79C1309.49 1550.85 1308.19 1545.91 1306.9 1540.95C1306.58 1539.75 1306.27 1538.55 1305.94 1537.31C1305.38 1535.16 1304.83 1533.01 1304.28 1530.86C1302.27 1523.2 1299.89 1515.52 1293.53 1510.37C1289.34 1508.1 1284.76 1507 1280.13 1505.91C1275.13 1504.67 1272.3 1503.18 1269 1499C1267.04 1495.3 1266.7 1492.16 1266.69 1488C1266.67 1486.99 1266.65 1485.98 1266.64 1484.94C1267.05 1481.61 1268.17 1479.77 1270 1477C1270 1476.34 1270 1475.68 1270 1475C1281.37 1470.39 1292.17 1471.88 1304.06 1473.94C1380.37 1486.82 1461.86 1458.63 1524 1415C1548.2 1397.73 1583.32 1370.59 1590 1340C1590.65 1332.82 1588.84 1327.04 1584.44 1321.38C1574.9 1311.06 1559.5 1306.93 1546.46 1303.11C1545.29 1302.76 1544.12 1302.41 1542.92 1302.05C1538 1300.58 1533.08 1299.12 1528.15 1297.67C1504.15 1290.55 1480.61 1282.83 1458 1272C1457.12 1271.59 1456.25 1271.17 1455.34 1270.74C1435.19 1261.17 1416.5 1249.85 1399 1236C1398.02 1235.23 1397.04 1234.46 1396.03 1233.67C1388.69 1227.8 1381.81 1221.46 1375 1215C1373.87 1213.93 1373.87 1213.93 1372.71 1212.84C1367.84 1208.12 1363.52 1203.01 1359.32 1197.68C1358.39 1196.49 1357.45 1195.31 1356.51 1194.14C1348.1 1183.59 1340.64 1172.75 1334 1161C1333.28 1159.72 1333.28 1159.72 1332.54 1158.42C1317.06 1130.75 1307.38 1101.46 1300.79 1070.55C1300.65 1069.86 1300.5 1069.17 1300.35 1068.46C1295.77 1046.87 1292.24 1025.09 1288.56 1003.33C1282.31 966.452 1275.29 929.903 1266.12 893.625C1265.83 892.441 1265.53 891.256 1265.22 890.036C1259.77 868.378 1253.99 846.866 1246.03 825.973C1245.57 824.76 1245.11 823.547 1244.64 822.297C1242.45 817.887 1240.04 814.955 1235.53 812.843C1232.03 811.86 1228.53 810.888 1225 810C1224.18 809.792 1223.35 809.585 1222.5 809.371C1215.17 807.545 1207.8 805.827 1200.44 804.125C1199.23 803.846 1198.03 803.567 1196.79 803.28C1108.92 782.975 1020 767.928 919.582 751.067C918.644 750.909 917.707 750.752 916.741 750.59C914.859 750.275 912.977 749.96 911.095 749.644C826.339 735.441 741.648 720.862 658 701C656.177 700.568 656.177 700.568 654.317 700.126C612.648 690.221 571.271 679.331 529.984 667.944C528.832 667.628 527.681 667.311 526.495 666.985C524.07 666.302 521.653 665.593 519.241 664.864C517.408 664.313 517.408 664.313 515.538 663.751C514.45 663.416 513.361 663.081 512.24 662.735C503.458 660.743 499.799 662.668 494 669ZM1287 826C1287.48 833.647 1289.52 840.587 1291.78 847.865C1296.08 861.775 1299.83 875.788 1303.25 889.938C1303.46 890.803 1303.67 891.668 1303.89 892.56C1305.97 901.172 1307.99 909.793 1309.82 918.461C1310.09 919.718 1310.36 920.975 1310.63 922.27C1311.11 924.555 1311.58 926.843 1312.02 929.135C1312.23 930.128 1312.44 931.121 1312.65 932.145C1312.82 932.994 1312.98 933.843 1313.15 934.718C1314.24 937.645 1315.58 939.047 1318 941C1320.2 941.906 1320.2 941.906 1322.63 942.309C1323.56 942.496 1324.5 942.683 1325.46 942.876C1326.48 943.061 1327.51 943.247 1328.56 943.438C1329.65 943.644 1330.74 943.85 1331.86 944.062C1357.37 948.749 1383.15 951.985 1409 954C1410.17 954.096 1411.34 954.192 1412.55 954.29C1427.69 955.363 1442.89 955.246 1458.06 955.25C1458.81 955.251 1459.55 955.251 1460.32 955.251C1484.66 955.259 1508.79 954.721 1533 952C1534.15 951.873 1534.15 951.873 1535.33 951.743C1612.59 945.813 1612.59 945.813 1678 911C1672.98 909.808 1668.88 910.362 1663.93 911.477C1662.31 911.819 1660.7 912.162 1659.08 912.504C1658.23 912.687 1657.38 912.87 1656.51 913.059C1628.99 918.976 1601.12 923.295 1573 925C1572.09 925.057 1571.18 925.113 1570.24 925.171C1497.17 929.439 1424 922.061 1353.38 902.875C1352.22 902.563 1351.07 902.25 1349.88 901.928C1326.03 895.269 1326.03 895.269 1322 889C1321.35 884.95 1321.64 882.771 1323.38 879.063C1327.45 875.857 1330.96 876.417 1336 877C1341.46 878.127 1346.8 879.713 1352.16 881.244C1356.74 882.548 1361.33 883.796 1365.93 885.043C1366.86 885.297 1367.79 885.55 1368.76 885.811C1408.06 896.399 1448.42 902.291 1489 905C1490.04 905.071 1490.04 905.071 1491.09 905.144C1505.64 906.115 1520.18 906.201 1534.75 906.188C1535.96 906.187 1537.18 906.186 1538.43 906.186C1582.42 908.068 1582.42 908.068 1624 898C1623.04 897.852 1623.04 897.852 1622.07 897.701C1562.29 888.423 1503.02 877.37 1444 864C1442.88 863.747 1441.76 863.495 1440.61 863.234C1392.99 852.482 1345.59 840.743 1298.36 828.386C1297.12 828.063 1295.88 827.739 1294.6 827.406C1293.55 827.131 1292.5 826.856 1291.42 826.572C1289.09 825.924 1289.09 825.924 1287 826ZM299 1087C298.126 1088.16 298.126 1088.16 297.234 1089.35C287.128 1102.72 276.249 1114.94 264.437 1126.81C263.642 1127.62 263.642 1127.62 262.83 1128.44C255.891 1135.43 248.761 1141.91 241 1148C240.297 1148.56 239.594 1149.12 238.869 1149.7C223.533 1161.93 207.199 1172.65 189.939 1181.95C187.997 1183 186.07 1184.08 184.144 1185.16C158.507 1199.39 130.344 1209.02 102.375 1217.5C92.7782 1220.42 83.3169 1223.57 73.9374 1227.13C72.9099 1227.51 71.8824 1227.89 70.8237 1228.29C59.0809 1232.85 49.0966 1238.48 41.1249 1248.31C37.9591 1255.88 38.8123 1262.48 41.664 1270.02C48.2355 1284.7 60.2874 1297.14 71.0781 1308.89C72.8281 1310.81 74.51 1312.77 76.1874 1314.75C84.0479 1323.77 92.7429 1332.42 102 1340C102.5 1340.41 103 1340.83 103.516 1341.25C118.465 1353.59 134.063 1364.56 151 1374C151.734 1374.42 152.468 1374.83 153.225 1375.26C166.013 1382.44 179.201 1388.05 193 1393C193.83 1393.3 194.661 1393.6 195.516 1393.91C214.724 1400.7 234.822 1404.14 255.187 1404.25C256.133 1404.27 257.078 1404.29 258.053 1404.31C263.817 1404.34 267.948 1403.86 273 1401C275.409 1397.39 275.457 1394.52 275.676 1390.33C275.726 1389.5 275.776 1388.68 275.827 1387.83C275.998 1384.97 276.155 1382.11 276.312 1379.25C276.435 1377.15 276.558 1375.05 276.682 1372.94C277.58 1357.44 278.369 1341.94 279.164 1326.43C283.268 1246.43 289.548 1167.33 301 1088C300.34 1087.67 299.68 1087.34 299 1087Z" fill="white"/>
<path d="M688.945 1133.46C696.156 1138.86 699.949 1148.58 703.687 1156.5C719.924 1189.81 745.021 1218.26 780.707 1230.9C781.587 1231.2 782.468 1231.5 783.375 1231.81C784.175 1232.09 784.976 1232.37 785.801 1232.65C799.802 1237.2 813.813 1238.54 828.437 1238.37C829.2 1238.37 829.964 1238.37 830.75 1238.36C842.024 1238.28 853.068 1237.99 864 1235C864.728 1234.8 865.457 1234.6 866.207 1234.4C888.31 1228.12 906.515 1216.9 923 1201C923.967 1200.11 923.967 1200.11 924.953 1199.2C939.355 1185.61 948.348 1167.67 956.918 1150.12C960.93 1141.98 964.463 1136.12 972.437 1131.62C978.79 1130.08 983.51 1130.6 989.172 1133.72C992.629 1136.14 995.106 1139.21 997 1143C998.287 1153.47 995.409 1161.71 991 1171C990.695 1171.65 990.39 1172.31 990.075 1172.98C980.461 1193.45 968.017 1211.13 953 1228C952.095 1229.02 952.095 1229.02 951.172 1230.05C941.72 1240.03 929.768 1248.01 918 1255C917.125 1255.52 917.125 1255.52 916.232 1256.05C902.757 1263.92 888.391 1269.14 873.25 1272.81C872.448 1273.01 871.646 1273.2 870.82 1273.4C856.934 1276.57 843.241 1277.41 829.062 1277.37C827.783 1277.37 827.783 1277.37 826.478 1277.37C812.347 1277.34 798.775 1276.37 785 1273C784.21 1272.81 783.421 1272.61 782.608 1272.42C772.424 1269.84 762.596 1266.26 753 1262C752.362 1261.72 751.725 1261.44 751.068 1261.15C734.752 1253.79 720.757 1243.47 708 1231C707.007 1230.07 706.014 1229.14 705.019 1228.21C688.122 1212.17 675.668 1191.78 665.844 1170.79C665.053 1169.11 664.227 1167.45 663.398 1165.79C659.507 1157.5 658.277 1149.36 661.125 1140.5C667.878 1131.5 678.811 1127.61 688.945 1133.46Z" fill="white"/>
<path d="M887 406.125C888.287 406.345 889.574 406.564 890.9 406.79C1003.11 426.291 1003.11 426.291 1023 451C1033.04 467.123 1028.8 485.108 1024.84 502.594C1015.38 541.015 1015.38 541.015 1001 550C988.738 556.036 975.881 553.077 963.379 549.125C962.035 548.719 960.69 548.314 959.345 547.912C956.526 547.065 953.711 546.206 950.899 545.336C944.324 543.304 937.727 541.346 931.131 539.381C928.978 538.738 926.825 538.094 924.672 537.449C902.366 530.782 879.776 525.722 856.901 521.431C829.914 516.315 829.914 516.315 821.625 506.063C812.098 488.108 819.635 462.998 825.09 444.859C835.6 411.46 835.6 411.46 848.5 404.688C861.008 401.248 874.46 403.974 887 406.125ZM864 438C859.56 445.424 857.869 454.879 855.75 463.188C855.492 464.197 855.233 465.205 854.967 466.245C852.078 477.035 852.078 477.035 852.812 487.938C859.379 494.129 872.629 494.721 881.274 496.557C909.041 502.478 936.465 509.273 963.521 517.902C964.512 518.213 964.512 518.213 965.523 518.531C967.299 519.089 969.072 519.657 970.845 520.225C974.179 521.044 976.594 521.504 980 521C984.647 517.549 986.208 513.585 987.676 508.172C987.891 507.424 988.105 506.675 988.327 505.904C988.776 504.326 989.216 502.746 989.65 501.164C990.308 498.765 990.997 496.377 991.689 493.988C992.124 492.446 992.557 490.903 992.988 489.359C993.191 488.656 993.394 487.953 993.603 487.228C994.953 482.214 995.697 477.187 995 472C991.571 467.054 986.819 465.302 981.375 463.25C980.502 462.914 979.628 462.577 978.728 462.23C975.827 461.129 972.916 460.06 970 459C969.012 458.639 968.023 458.277 967.005 457.905C938.578 447.647 908.899 440.384 879 436C878.072 435.852 877.144 435.704 876.188 435.551C869.571 434.628 869.571 434.628 864 438Z" fill="white"/>
<path d="M625.672 980.543C628.24 982.243 630.621 984.045 633 986C633.699 986.574 634.397 987.147 635.117 987.738C646.179 997.789 653.332 1014.04 654.161 1028.88C654.569 1059.67 649.648 1087.43 630 1112C629.522 1112.64 629.043 1113.28 628.551 1113.95C620.938 1123.67 608.426 1131.17 596.34 1133.71C581.626 1135.51 567.971 1133.02 556 1124C541.439 1111.72 534.852 1095.66 533 1077C530.768 1049.44 540.083 1018.98 557.637 997.734C574.545 978.125 601.454 966.557 625.672 980.543Z" fill="white"/>
<path d="M1072 979C1072.83 979.389 1073.67 979.778 1074.53 980.18C1094.09 990.628 1106.5 1012.74 1113.05 1033.18C1119.95 1056.01 1121.53 1081.45 1111.19 1103.5C1103.31 1117.91 1092.31 1127.76 1076.7 1133.14C1064.32 1136.03 1051.31 1134.81 1040 1129C1036.71 1126.93 1033.85 1124.64 1031 1122C1030.42 1121.5 1029.85 1121 1029.25 1120.49C1009.41 1102.26 999.869 1075.1 997.75 1048.91C997.262 1028.64 1001.98 1004.16 1016 989C1030.43 974.12 1053.22 970.099 1072 979Z" fill="white"/>
<path d="M671.044 1502.91C672.097 1502.92 673.15 1502.92 674.235 1502.92C675.351 1502.91 676.468 1502.9 677.618 1502.89C681.38 1502.86 685.142 1502.85 688.904 1502.85C691.593 1502.83 694.283 1502.81 696.972 1502.79C704.294 1502.75 711.616 1502.73 718.939 1502.71C723.513 1502.7 728.087 1502.68 732.661 1502.67C746.971 1502.62 761.28 1502.58 775.589 1502.57C792.11 1502.54 808.63 1502.48 825.151 1502.38C837.917 1502.31 850.682 1502.27 863.448 1502.26C871.074 1502.26 878.699 1502.24 886.325 1502.17C893.503 1502.12 900.68 1502.11 907.859 1502.13C910.49 1502.14 913.121 1502.12 915.751 1502.09C938.097 1501.81 938.097 1501.81 945.504 1508.16C947.869 1510.8 947.869 1510.8 949.928 1513.49C951.49 1515.24 953.057 1517 954.629 1518.74C955.854 1520.19 955.854 1520.19 957.104 1521.67C960.823 1525.98 964.681 1530.16 968.551 1534.34C974.913 1541.22 981.244 1548.13 987.473 1555.14C989.435 1557.33 991.42 1559.51 993.429 1561.66C994.348 1562.67 995.267 1563.67 996.214 1564.7C997.02 1565.56 997.825 1566.42 998.655 1567.31C1001.02 1570.72 1001.79 1573.15 1002 1577.3C1000.52 1579.66 1000.52 1579.66 997.661 1581.65C993.918 1582.09 990.519 1582.26 986.774 1582.24C985.095 1582.26 985.095 1582.26 983.383 1582.27C979.622 1582.31 975.862 1582.31 972.101 1582.31C969.409 1582.32 966.717 1582.34 964.025 1582.36C956.703 1582.4 949.381 1582.42 942.059 1582.43C937.485 1582.43 932.911 1582.44 928.337 1582.46C912.382 1582.51 896.427 1582.53 880.472 1582.54C865.597 1582.54 850.724 1582.6 835.85 1582.68C823.083 1582.75 810.316 1582.78 797.549 1582.78C789.922 1582.78 782.296 1582.8 774.67 1582.86C767.494 1582.91 760.319 1582.91 753.143 1582.88C750.512 1582.87 747.88 1582.89 745.249 1582.92C725.403 1583.14 725.403 1583.14 719.135 1579.5C716.552 1576.96 714.674 1574.53 712.711 1571.5C711.164 1569.7 709.599 1567.91 708.01 1566.15C707.182 1565.19 706.354 1564.23 705.501 1563.23C701.942 1559.16 698.29 1555.18 694.63 1551.19C689.431 1545.53 684.297 1539.83 679.301 1533.99C677.049 1531.45 674.752 1529.01 672.397 1526.57C671.3 1525.42 671.3 1525.42 670.182 1524.24C668.729 1522.72 667.262 1521.21 665.78 1519.72C662.589 1516.36 660.747 1514.16 660 1509.52C661.306 1502.81 665.003 1502.99 671.044 1502.91Z" fill="white"/>
<path d="M748.708 1617.09C751.443 1617.09 754.178 1617.08 756.913 1617.06C764.293 1617.05 771.667 1617.14 779.046 1617.26C786.777 1617.37 794.508 1617.37 802.239 1617.39C815.204 1617.43 828.167 1617.53 841.131 1617.69C859.432 1617.91 877.733 1618 896.036 1618.07C910.244 1618.13 924.452 1618.22 938.659 1618.32C940.185 1618.33 941.711 1618.34 943.283 1618.35C952.034 1618.41 960.785 1618.49 969.535 1618.59C972.189 1618.62 974.843 1618.64 977.498 1618.66C981.108 1618.69 984.717 1618.74 988.327 1618.79C989.388 1618.79 990.449 1618.79 991.542 1618.8C998.775 1618.93 998.775 1618.93 1002 1622.14C1001.59 1627.91 999.822 1630.79 995.805 1634.85C994.832 1635.85 993.858 1636.85 992.855 1637.88C991.294 1639.45 991.294 1639.45 989.7 1641.05C982.966 1647.97 976.361 1654.84 970.347 1662.39C965.073 1669.01 959.306 1674.89 953.237 1680.78C950.272 1683.73 947.533 1686.75 944.843 1689.95C941.225 1694.18 941.225 1694.18 938.331 1695.62C934.729 1695.77 931.168 1695.82 927.565 1695.81C926.442 1695.82 925.319 1695.82 924.162 1695.82C920.378 1695.83 916.594 1695.83 912.811 1695.83C910.106 1695.83 907.402 1695.84 904.698 1695.85C897.337 1695.86 889.977 1695.86 882.616 1695.86C876.481 1695.86 870.346 1695.87 864.211 1695.87C849.743 1695.89 835.276 1695.89 820.808 1695.89C805.86 1695.89 790.912 1695.9 775.964 1695.93C763.149 1695.94 750.334 1695.95 737.519 1695.95C729.857 1695.95 722.195 1695.95 714.532 1695.97C707.33 1695.98 700.128 1695.98 692.926 1695.97C690.277 1695.97 687.627 1695.98 684.978 1695.98C681.373 1696 677.769 1695.99 674.165 1695.98C672.576 1695.99 672.576 1695.99 670.954 1696C663.729 1695.95 663.729 1695.95 660.504 1692.74C659.832 1689.51 659.832 1689.51 660.504 1685.54C663.036 1682.28 665.477 1679.51 668.373 1676.62C669.979 1674.96 671.584 1673.29 673.188 1671.62C673.986 1670.81 674.783 1669.99 675.605 1669.15C678.701 1665.94 681.68 1662.65 684.652 1659.33C685.692 1658.18 686.733 1657.02 687.806 1655.83C689.333 1654.13 689.333 1654.13 690.892 1652.4C693.993 1648.95 697.093 1645.5 700.259 1642.11C702.854 1639.19 705.129 1636.38 707.411 1633.24C719.304 1617.64 729.823 1616.6 748.708 1617.09Z" fill="white"/>
<path d="M779.348 1386C787.072 1386.14 794.797 1386.14 802.521 1386.16C815.469 1386.21 828.413 1386.35 841.359 1386.54C859.636 1386.82 877.911 1386.95 896.19 1387.04C920.658 1387.18 945.128 1387.35 969.595 1387.71C972.243 1387.75 974.892 1387.78 977.541 1387.8C981.144 1387.84 984.746 1387.9 988.348 1387.96C989.407 1387.97 990.465 1387.97 991.556 1387.98C998.773 1388.13 998.773 1388.13 1002 1391.39C1001.58 1397.11 999.931 1400.06 996.016 1404.11C995.087 1405.09 994.157 1406.06 993.199 1407.07C992.221 1408.07 991.243 1409.07 990.236 1410.1C988.33 1412.09 986.425 1414.08 984.523 1416.07C983.096 1417.56 983.096 1417.56 981.639 1419.07C978.057 1422.89 974.655 1426.85 971.245 1430.83C965.946 1436.91 960.366 1442.74 954.841 1448.61C953.475 1450.08 953.475 1450.08 952.081 1451.56C950.87 1452.85 950.87 1452.85 949.634 1454.17C946.747 1457.25 946.747 1457.25 943.903 1461.62C940.638 1465.55 939.875 1465.86 934.538 1466.97C932.489 1467.01 930.439 1467.01 928.39 1466.96C927.256 1466.97 926.123 1466.98 924.955 1466.99C921.161 1467.01 917.371 1466.97 913.578 1466.93C910.857 1466.93 908.136 1466.94 905.415 1466.95C898.029 1466.96 890.644 1466.92 883.258 1466.87C875.535 1466.83 867.813 1466.83 860.09 1466.83C847.126 1466.82 834.162 1466.77 821.198 1466.71C804.54 1466.62 787.883 1466.59 771.225 1466.58C756.921 1466.57 742.616 1466.53 728.312 1466.49C723.705 1466.48 719.097 1466.47 714.49 1466.46C707.263 1466.45 700.037 1466.42 692.81 1466.38C690.152 1466.36 687.494 1466.36 684.835 1466.35C681.219 1466.35 677.604 1466.33 673.988 1466.3C672.925 1466.3 671.862 1466.3 670.768 1466.31C663.52 1466.22 663.52 1466.22 660.294 1462.97C659.776 1458.83 659.722 1456.54 662.012 1453.01C663.21 1451.8 663.21 1451.8 664.434 1450.55C665.769 1449.17 665.769 1449.17 667.132 1447.75C668.585 1446.29 668.585 1446.29 670.067 1444.8C672.084 1442.7 674.097 1440.61 676.107 1438.5C677.112 1437.46 678.118 1436.41 679.153 1435.33C682.397 1431.88 685.486 1428.33 688.506 1424.68C689.895 1423.02 691.305 1421.38 692.742 1419.77C696.674 1415.32 699.923 1411.04 702.777 1405.81C719.113 1379.32 752.35 1385.44 779.348 1386Z" fill="white"/>
<path d="M1208.08 1116.27C1212.27 1120.05 1213.77 1124.12 1214.44 1129.63C1213.62 1135.9 1210.97 1139.68 1206.14 1143.55C1195.68 1150.64 1184.7 1152.13 1172.38 1152.31C1171.59 1152.33 1170.8 1152.35 1169.99 1152.37C1161.13 1152.35 1154.11 1150.04 1147.67 1143.88C1143.84 1139.57 1142.74 1135.64 1143 1130C1143.91 1123.79 1146.2 1120.17 1151.13 1116.34C1167.21 1105.8 1192.22 1104.92 1208.08 1116.27Z" fill="white"/>
<path d="M487 1112C487.722 1112.28 488.444 1112.56 489.188 1112.84C495.536 1115.63 501.393 1120.43 504 1127C504.701 1131.94 504.556 1135.89 502.313 1140.38C496.054 1147.48 487.512 1151.47 478.019 1152.14C467.711 1152.59 458.527 1152.42 449 1148C448.158 1147.61 447.317 1147.23 446.449 1146.83C440.346 1143.75 436.62 1140.39 433.625 1134.13C432.536 1128.68 433.113 1124.65 435.75 1119.75C447.108 1105.87 471.397 1105.72 487 1112Z" fill="white"/>
<path d="M1227 560C1230.38 561.383 1231.77 562.685 1233.94 565.625C1235.39 570.249 1234.91 573.571 1233 578C1230.93 580.913 1228.58 582.653 1225 583.437C1221.31 583.661 1219.17 583.109 1216.06 581.125C1212.63 577.593 1212.72 574.994 1212.78 570.254C1213.17 566.224 1215.02 564.011 1217.75 561.187C1221 559.471 1223.37 559.618 1227 560Z" fill="white"/>
<path d="M706 418C708.5 419.5 708.5 419.5 710 422C711.512 428.149 711.031 431.479 708 437C705.759 439.758 704.139 440.479 700.625 440.875C697.467 441.127 696.068 441.027 693.063 439.812C690.882 437.896 690.061 436.672 689 434C688.806 428.838 689.678 424.06 693 420C697.206 417.451 701.203 417.312 706 418Z" fill="white"/>
<path d="M745 422C747.753 423.796 749.526 425.053 751 428C751.423 432.597 751.539 436.707 749.75 441C747.408 443.676 745.306 444.802 741.781 445.336C735.704 445.44 735.704 445.44 732.5 443.438C730.465 440.13 730.065 437.894 730 434C731.079 429.519 732.491 426.075 736 423C739.1 421.45 741.579 421.71 745 422Z" fill="white"/>
<path d="M667 415C670 417 670 417 672 420C672.761 425.898 671.847 429.814 669 435C667.099 437.266 665.812 437.864 662.918 438.348C658.647 438.624 656.558 438.376 652.937 435.938C650.481 432.213 650.393 430.398 651 426C653.613 417.885 658.205 412.996 667 415Z" fill="white"/>
<path d="M1192.37 546.875C1195.1 549.084 1195.85 549.778 1196.27 553.172C1196.58 560.999 1196.58 560.999 1193.94 564.562C1190.38 567.511 1188.6 568.079 1184 568C1177.95 566.116 1177.95 566.116 1175.56 563.312C1174.35 558.317 1174.49 554.377 1176.25 549.625C1180.22 543.676 1186.3 543.5 1192.37 546.875Z" fill="white"/>
<path d="M1150 532C1153.7 534.493 1154.74 536.115 1156 540.375C1156 544.729 1155.17 547.235 1153 551C1150.08 553.514 1148.34 553.963 1144.5 554.375C1140.75 553.973 1138.93 553.341 1136 551C1133.43 547.572 1133.64 544.161 1134 540C1137.19 531.958 1141.88 530.757 1150 532Z" fill="white"/>
<path d="M1264 575C1266.38 576.894 1267.65 578.3 1269 581C1269.37 586.51 1269.35 590.357 1266 595C1261.99 597.469 1259.93 598.14 1255.25 597.438C1251.81 595.916 1250.88 595.147 1249 592C1248.03 586.216 1248.59 580.872 1252 576C1255.46 573.049 1259.87 573.803 1264 575Z" fill="white"/>
<path d="M1109 519C1111.87 520.794 1113.49 521.982 1115 525C1115.37 530.58 1115.2 534.196 1112 539C1109.05 541.405 1105.71 541.412 1101.97 541.328C1098.86 540.809 1097.15 539.214 1095 537C1093.27 533.533 1093.52 529.79 1094 526C1097.77 518.971 1101.38 518.012 1109 519Z" fill="white"/>
</g>
<defs>
<clipPath id="clip0_10_63">
<rect width="1736" height="1920" fill="white"/>
</clipPath>
</defs>
</svg>
