<?xml version="1.0" encoding="UTF-8"?>
<svg width="24" height="24" viewBox="0 0 24 24" fill="none" xmlns="http://www.w3.org/2000/svg">
  <path d="M12 2C6.48 2 2 6.48 2 12C2 17.52 6.48 22 12 22C17.52 22 22 17.52 22 12C22 6.48 17.52 2 12 2ZM12 20C7.59 20 4 16.41 4 12C4 7.59 7.59 4 12 4C16.41 4 20 7.59 20 12C20 16.41 16.41 20 12 20Z" fill="currentColor"/>
  <path d="M12.5 7H11.5V11.75L15.25 14.25L15.75 13.25L12.5 11.25V7Z" fill="currentColor"/>
  <path d="M13 13.5V15H11V13.5H9.5V16.5H14.5V13.5H13Z" fill="currentColor"/>
</svg> 