
<svg xmlns="http://www.w3.org/2000/svg" fill="none" viewBox="0 0 114 56" height="56" width="114">
<g clip-path="url(#clip0_362_18611)">
<path fill="white" d="M72.907 15.9302L66.3488 18.3721V21.8605L77.5814 17.3256V14.5349L66.3488 10V13.4186L72.907 15.9302ZM0 36.1628C0 38.8139 1.95349 40 4.32558 40C6.06977 40 7.25582 39.1628 7.95349 38.186V39.7209H11.5116V30.9302C11.5116 27.6511 9.20931 26.3255 6.06977 26.3255C3 26.3255 0.697675 27.7209 0.418605 30.6511H3.90698C3.97675 29.6744 4.60465 28.9767 5.86047 28.9767C7.25582 28.9767 7.81396 29.7442 7.81396 31.0697V31.6976H6.2093C2.7907 31.6976 0 32.8139 0 36.0232V36.1628ZM7.81396 34.1395V35.3953C7.81396 36.7209 6.69768 37.4186 5.44186 37.4883C4.18605 37.4883 3.62791 36.8604 3.62791 35.9535V35.8139C3.62791 34.6279 4.53489 34.1395 6.34884 34.1395H7.81396ZM13.5349 33.3023C13.5349 37.7674 16.1861 40 19.814 40C23.3721 40 25.3954 37.9069 25.6047 34.8372H22.2558C22.0465 36.3023 21.1395 37.2093 19.8837 37.2093C18.2093 37.2093 17.2326 36.0232 17.2326 33.3721V32.9535C17.2326 30.3721 18.3488 29.1162 19.8837 29.1162C21.1395 29.1162 21.8372 29.9535 22.0465 31.2093H25.5349C25.2558 27.7907 22.814 26.2558 19.814 26.2558C16.3256 26.2558 13.5349 28.6279 13.5349 33.093V33.3023ZM27.2093 33.3023C27.2093 37.7674 29.8605 40 33.4884 40C37.0465 40 39.0698 37.9069 39.2791 34.8372H35.9302C35.7209 36.3023 34.814 37.2093 33.5582 37.2093C31.8837 37.2093 30.907 36.0232 30.907 33.3721V32.9535C30.907 30.3721 32.0233 29.1162 33.5582 29.1162C34.814 29.1162 35.5116 29.9535 35.7209 31.2093H39.2093C38.9303 27.7907 36.4884 26.2558 33.4884 26.2558C30 26.2558 27.2093 28.6279 27.2093 33.093V33.3023ZM40.8837 33.3721C40.8837 37.7674 43.4651 40 47.2326 40C50.6512 40 52.7442 38.1162 53.1628 35.6744H49.7442C49.4651 36.5814 48.6977 37.3488 47.3023 37.3488C45.7675 37.3488 44.721 36.4418 44.5814 34.0697H53.1628V32.4651C53.1628 28.0697 50.4419 26.2558 47.1628 26.2558C43.6047 26.2558 40.8837 28.6976 40.8837 33.093V33.3721ZM49.5349 31.6279H44.6512C44.9303 29.5348 45.9768 28.9069 47.093 28.8372C48.5582 28.8372 49.4651 29.6744 49.5349 31.6279ZM59.093 26.6046H55.3954V39.7209H59.093V31.6976C59.093 30.0232 60.1396 29.2558 61.3954 29.2558C62.721 29.2558 63.3489 29.9535 63.3489 31.4883V39.7209H67.0465V30.9302C67.0465 27.7907 65.4419 26.3255 63.0698 26.3255C61.0465 26.3255 59.721 27.3023 59.093 28.5581V26.6046ZM73.814 26.6046V22.6279L70.1163 24.1628V26.6046H68.5814V29.3255H70.1163V35.9535C70.1163 38.6046 71.4419 39.9302 74.3024 39.9302C75.2093 39.9302 75.9768 39.7907 76.3954 39.6511V36.7907C76.0465 36.9302 75.6977 37 75.1396 37C74.2326 37 73.814 36.5116 73.814 35.5349V29.3255H76.3256V26.6046H73.814ZM86.5117 39.7209H90.1396V26.6046H86.4419V34.7674C86.4419 36.3721 85.3954 37.2093 84.1396 37.2093C82.8838 37.2093 82.2559 36.5116 82.2559 34.9767V26.6046H78.5582V35.4651C78.5582 38.5349 80.3024 40 82.6745 40C84.6279 40 85.8838 39.0232 86.5117 37.7674V39.7209ZM96.5582 26.6046H92.8605V39.7907H96.5582V33.0232C96.5582 30.8604 98.0233 30.093 100.535 30.093V26.4651C98.5814 26.4651 97.3256 27.3023 96.5582 29.0465V26.6046ZM101.651 33.3721C101.651 37.7674 104.233 40 108 40C111.419 40 113.442 38.1162 114 35.6744H110.581C110.302 36.5814 109.535 37.3488 108.14 37.3488C106.605 37.3488 105.558 36.4418 105.419 34.0697H113.93V32.4651C113.93 28.0697 111.209 26.2558 107.93 26.2558C104.372 26.2558 101.651 28.6976 101.651 33.093V33.3721ZM110.302 31.6279H105.349C105.698 29.5348 106.744 28.9069 107.861 28.8372C109.326 28.8372 110.233 29.6744 110.302 31.6279Z" clip-rule="evenodd" fill-rule="evenodd"></path>
</g>
<defs>
<clipPath id="clip0_362_18611">
<rect fill="white" height="56" width="114"></rect>
</clipPath>
</defs>
</svg>
