
<svg xmlns="http://www.w3.org/2000/svg" fill="none" viewBox="0 0 50 56" height="56" width="50">
<path fill="white" d="M32.4818 32.9091L22.9946 16.502L29.8102 12.6064L41.6075 32.9091H32.4818ZM7.2121 30.6104L14.0277 26.6885L17.6339 32.9091H8.53466L7.2121 30.6104ZM22.5273 43.3763H20.5876V35.5676H22.5273V43.3763ZM44.8962 43.5606C42.7272 43.5606 41.4223 42.4463 41.3517 40.8758H43.3973C43.3973 41.3671 43.7059 42.0866 45.0285 42.1129C45.9102 42.1129 46.3246 41.5952 46.3246 41.2092C46.2767 40.6538 45.6377 40.5576 44.903 40.447C44.8252 40.4353 44.7463 40.4234 44.667 40.4108C43.8382 40.2792 43.1328 40.13 42.6214 39.8668C41.9689 39.5334 41.5281 38.8139 41.5281 37.9892C41.5281 36.5941 42.7448 35.4886 44.7728 35.4886C46.739 35.4886 47.9822 36.5152 48.1144 38.0418H46.1394C46.1218 37.6295 46.0424 36.9802 44.8786 36.9802C44.0939 36.9802 43.5737 37.1381 43.5296 37.6821C43.5296 38.253 44.3636 38.3888 45.3032 38.5417C45.6775 38.6026 46.0686 38.6663 46.4304 38.7613C47.6471 39.0684 48.423 39.8229 48.423 40.8758C48.423 42.8148 46.8448 43.5606 44.8962 43.5606ZM22.0159 19.7308L15.2003 23.644L20.5875 32.9004V34.8394H22.5273V32.9092H29.6603L22.0159 19.7308ZM15.3766 43.5606C13.1195 43.5606 11.2855 41.7269 11.2855 39.5071C11.2855 37.261 13.1195 35.4887 15.3766 35.4887C16.2319 35.4887 17.0078 35.7168 17.6867 36.1818V32.9092H19.6265V43.3764H17.6867V42.8587C17.0078 43.2974 16.2319 43.5606 15.3766 43.5606ZM13.1459 39.5071C13.1459 40.7179 14.1863 41.7269 15.4295 41.7269C16.6463 41.7269 17.6867 40.7179 17.6867 39.5071C17.6867 38.2963 16.6463 37.261 15.4295 37.261C14.1863 37.261 13.1459 38.2963 13.1459 39.5071ZM31.6265 32.9092H29.7132V36.1818C29.0343 35.7168 28.2584 35.4887 27.3767 35.4887C25.146 35.4887 23.312 37.261 23.312 39.5071C23.312 41.7269 25.146 43.5606 27.3767 43.5606C28.2584 43.5606 29.0607 43.2974 29.7132 42.8587V43.3764H31.6265V32.9092ZM27.4296 41.7269C26.2393 41.7269 25.1989 40.7179 25.1989 39.5071C25.1989 38.2963 26.2393 37.261 27.4296 37.261C28.6728 37.261 29.7132 38.2963 29.7132 39.5071C29.7132 40.7179 28.6728 41.7269 27.4296 41.7269ZM36.3437 43.5606C34.1218 43.5606 32.279 41.7268 32.279 39.5071C32.279 37.261 34.1218 35.4886 36.3437 35.4886C37.1989 35.4886 38.0013 35.7168 38.6537 36.1818V35.5588H40.5935V43.3763H38.6537V42.8587C38.0013 43.2974 37.2254 43.5606 36.3437 43.5606ZM34.1658 39.5071C34.1658 40.7179 35.2063 41.7268 36.423 41.7268C37.6398 41.7268 38.6537 40.7179 38.6537 39.5071C38.6537 38.2963 37.6398 37.261 36.423 37.261C35.2063 37.261 34.1658 38.2963 34.1658 39.5071ZM6.40971 41.7268C5.19296 41.7268 4.15254 40.7179 4.15254 39.5071C4.15254 38.2963 5.19296 37.261 6.40971 37.261C7.65292 37.261 8.69333 38.2963 8.69333 39.5071C8.69333 40.7179 7.65292 41.7268 6.40971 41.7268ZM2.28333 39.5071C2.28333 41.7268 4.12609 43.5606 6.35681 43.5606C7.23852 43.5606 8.04087 43.2974 8.69333 42.8587V43.3763H10.6066V35.5588H8.69333V36.1818C8.01442 35.7168 7.21207 35.4886 6.35681 35.4886C4.12609 35.4886 2.28333 37.261 2.28333 39.5071Z" clip-rule="evenodd" fill-rule="evenodd"></path>
</svg>
