
<svg xmlns="http://www.w3.org/2000/svg" fill="none" viewBox="0 0 210 56" height="56" width="210">
<path fill="white" d="M12.2493 14.4033C10.6783 16.8201 9.76273 19.604 9.59254 22.4816C9.42235 25.3591 10.0034 28.2315 11.2786 30.8167L15.5305 39.2545C15.5925 39.3798 15.6881 39.4855 15.8068 39.5595C15.9254 39.6336 16.0623 39.6732 16.2022 39.6738H24.9778C25.1008 39.6637 25.2196 39.6243 25.3244 39.5591C25.4292 39.4939 25.5169 39.4046 25.5803 39.2987C25.6437 39.1928 25.6809 39.0733 25.6889 38.9501C25.6969 38.827 25.6754 38.7037 25.6262 38.5905L13.5307 14.4033C13.4728 14.2825 13.3819 14.1806 13.2685 14.1092C13.1552 14.0379 13.024 14 12.89 14C12.7561 14 12.6249 14.0379 12.5115 14.1092C12.3981 14.1806 12.3073 14.2825 12.2493 14.4033ZM7.62466 25.8503C7.54837 25.7504 7.44755 25.6718 7.33199 25.6223C7.21642 25.5728 7.09002 25.5539 6.96503 25.5676C6.84003 25.5813 6.72069 25.627 6.61857 25.7003C6.51644 25.7737 6.43499 25.8722 6.3821 25.9862L0.0799969 38.5905C0.0224318 38.7052 -0.00486056 38.8327 0.000709712 38.961C0.00627998 39.0892 0.0445281 39.2139 0.111825 39.3232C0.179121 39.4325 0.273233 39.5228 0.38523 39.5855C0.497227 39.6483 0.623393 39.6813 0.751756 39.6816H9.52733C9.66939 39.6843 9.80912 39.6453 9.92921 39.5693C10.0493 39.4934 10.1445 39.3839 10.203 39.2544C12.094 35.3714 10.9485 29.4033 7.62466 25.8503ZM204.019 39.6816L197.647 27.8384L195.748 23.5594V39.6816H191.244V18.5425H198.354L203.471 28.2267L205.176 32.1835V18.5425H209.68V39.6816H204.019ZM162.595 18.5425H157.671V39.6816H162.595V18.5425ZM144.493 26.8016C150.03 27.9936 151.991 29.7293 151.991 33.4298L151.967 33.4376C151.967 37.3633 149.618 39.9999 143.7 39.9999C139.503 39.9999 137.251 39.0679 135.546 38.2331V33.1503C138.057 34.5533 140.875 35.3149 143.751 35.3675C146.147 35.3675 146.857 34.6918 146.857 33.5657C146.857 32.4397 146.147 31.8922 142.769 31.1855C137.107 30.0905 135.659 27.6015 135.659 24.4951C135.659 20.6004 138.489 18.2201 143.961 18.2201C146.369 18.1753 148.757 18.6702 150.95 19.6685V24.5028C148.667 23.4738 146.252 22.7322 143.805 22.7322C141.79 22.7322 140.699 23.2486 140.699 24.4718C140.699 25.4503 141.437 26.1259 144.493 26.8016ZM131.496 33.4298C131.496 29.7293 129.555 27.9936 124.002 26.8016C120.946 26.1259 120.204 25.4503 120.204 24.4718C120.204 23.2486 121.299 22.7322 123.311 22.7322C125.757 22.7322 128.168 23.4738 130.452 24.5028V19.6685C128.259 18.6702 125.871 18.1753 123.462 18.2201C117.995 18.2201 115.16 20.6004 115.16 24.4951C115.16 27.6015 116.609 30.0905 122.274 31.1855C125.652 31.8922 126.359 32.4397 126.359 33.5657C126.359 34.6918 125.652 35.3675 123.253 35.3675C120.377 35.3149 117.559 34.5533 115.048 33.1503V38.2331C116.756 39.0679 119.008 39.9999 123.202 39.9999C129.124 39.9999 131.469 37.3633 131.469 33.4376L131.496 33.4298ZM81.8986 18.5425V35.1113H88.6551L87.063 39.6816H76.9439V18.5425H81.8986ZM67.3762 39.6816V23.1089H73.2318V18.5425H56.9504V23.1089H62.4215V39.6816H67.3762ZM43.2745 18.5425H49.7668L57.1523 39.6816H51.5219L50.4774 36.1209C47.9043 36.877 45.168 36.877 42.5949 36.1209L41.5465 39.6816H35.8968L43.2745 18.5425ZM43.8025 31.9234C44.6853 32.1822 45.6007 32.313 46.5206 32.3117C47.4406 32.3127 48.3559 32.1819 49.2387 31.9234L46.5206 22.6973L43.8025 31.9234ZM104.505 18.5425H98.0131L90.6354 39.6816H96.2657L97.3141 36.1209C99.8872 36.877 102.624 36.877 105.197 36.1209L106.241 39.6816H111.872L104.505 18.5425ZM101.259 32.3117C100.339 32.3133 99.4239 32.1825 98.5412 31.9234L101.259 22.6973L103.977 31.9234C103.095 32.1826 102.179 32.3134 101.259 32.3117ZM173.84 18.5425H180.333L187.699 39.6816H182.064L181.02 36.1209C178.447 36.877 175.711 36.877 173.137 36.1209L172.093 39.6816H166.463L173.84 18.5425ZM174.368 31.9234C175.251 32.1819 176.167 32.3127 177.086 32.3117C178.006 32.3127 178.922 32.1819 179.805 31.9234L177.086 22.6973L174.368 31.9234Z" clip-rule="evenodd" fill-rule="evenodd"></path>
</svg>
