<svg xmlns="http://www.w3.org/2000/svg" fill="none" viewBox="0 0 70 56" height="56" width="70">
<path fill="white" d="M0 14H13.5498V15.9496H0V14ZM13.5498 17.7195H0V19.6691H13.5498V17.7195ZM9.67749 21.439H3.86551V23.3886H9.67749V21.439ZM3.86551 25.1654H9.67749V27.115H3.86551V25.1654ZM9.67749 28.885H3.86551V30.8346H9.67749V28.885ZM3.86551 32.6044H9.67749V34.554H3.86551V32.6044ZM13.5498 36.324H0V38.2735H13.5498V36.324ZM13.5498 40.0504H0V41.9931H13.5498V40.0504ZM29.916 14H15.4826V15.9496H34.8927C33.5951 14.7466 31.8349 14 29.916 14ZM15.4826 17.7195H36.3216C36.653 18.321 36.9153 18.9778 37.0947 19.6691H15.4826V17.7195ZM19.355 25.1654V27.115H34.6995C35.3484 26.5689 35.8936 25.9121 36.3216 25.1654H19.355ZM19.355 28.885H34.6995C35.3345 29.4312 35.8798 30.0879 36.3216 30.8346H19.355V28.885ZM36.3216 38.2735H15.4826V36.3239H37.0947C36.9359 37.0152 36.6736 37.672 36.3216 38.2735ZM19.355 21.439H25.1601V23.3886H19.355V21.439ZM30.972 23.3886H37.0463C37.2189 22.7664 37.3086 22.1096 37.3086 21.439H30.972V23.3886ZM25.1601 32.6044H19.355V34.554H25.1601V32.6044ZM30.972 32.6044V34.554H37.3086C37.3086 33.8834 37.2189 33.2266 37.0463 32.6044H30.972ZM29.916 42.0001L15.4826 41.9793V40.0504H34.8996C33.5951 41.2534 31.8487 42.0001 29.916 42.0001ZM38.7169 14H49.8024L50.472 15.9496H38.7169V14ZM51.0864 17.7195H38.7169V19.6691H51.7559L51.0864 17.7195ZM48.3943 28.885H42.5823V30.8346H48.3943V28.885ZM42.5823 32.6044H48.3943V34.554H42.5823V32.6044ZM48.3943 36.324H38.7169V38.2735H48.3943V36.324ZM48.3943 40.0504H38.7169V41.9931H48.3943V40.0504ZM60.0045 40.0504H69.6889V41.9931H60.0045V40.0504ZM69.6889 36.324H60.0045V38.2735H69.6889V36.324ZM60.0045 32.6044H65.8165V34.554H60.0045V32.6044ZM65.8165 28.885H60.0045V30.8346H65.8165V28.885ZM60.0045 27.115H65.8165V25.1654H60.0045H54.7447L54.1994 26.7418L53.6541 25.1654H48.3943H42.5823V27.115H48.3943V25.3244L49.0086 27.115H59.3902L60.0045 25.3244V27.115ZM56.0286 21.439H65.8165V23.3886H55.359L56.0286 21.439ZM58.6033 14L57.9337 15.9496H69.6889V14H58.6033ZM54.8689 40.0504L54.1994 41.9793L53.5298 40.0504H54.8689ZM52.9155 38.2735H55.4833L56.1736 36.324H52.2322L52.9155 38.2735ZM56.7879 34.554H51.6109L50.9275 32.6044H57.4712L56.7879 34.554ZM50.3132 30.8346H58.0924L58.7551 28.885H49.6436L50.3132 30.8346ZM53.0397 23.3886H42.5823V21.439H52.3702L53.0397 23.3886ZM56.6498 19.6691H69.6889V17.7195H57.3125L56.6498 19.6691Z" clip-rule="evenodd" fill-rule="evenodd"></path>
</svg>
