<svg xmlns="http://www.w3.org/2000/svg" fill="none" viewBox="0 0 122 56" height="56" width="122">
<path fill="white" d="M54.6087 14.6226C54.6087 16.0419 53.4544 17.1926 52.0304 17.1926C50.6065 17.1926 49.4521 16.0419 49.4521 14.6226C49.4521 13.2032 50.6065 12.0526 52.0304 12.0526C53.4544 12.0526 54.6087 13.2032 54.6087 14.6226ZM8.05273 12.5199V34.6134H11.9463V12.5199H8.05273ZM13.4663 26.7904C13.4663 22.4113 16.9209 18.5854 21.9129 18.5854C27.1053 18.5854 30.3313 22.6091 30.3313 26.7798C30.3313 31.7396 26.4381 35.0445 21.9517 35.0445C17.2245 35.0445 13.4663 31.6777 13.4663 26.7904ZM26.4025 26.8044C26.4025 24.3564 24.4795 22.3293 21.8671 22.3293C19.3919 22.3293 17.4233 24.2978 17.4233 26.8114C17.4233 29.1047 19.167 31.2936 21.9376 31.2936C24.2824 31.2936 26.4025 29.4 26.4025 26.8044ZM40.1139 18.5854C35.1219 18.5854 31.6673 22.4113 31.6673 26.7904C31.6673 31.6777 35.4255 35.0445 40.1527 35.0445C44.6391 35.0445 48.5323 31.7396 48.5323 26.7798C48.5323 23.8591 47.2633 22.5632 47.2633 22.5632L48.3425 22.1943V19.0445H42.8126C42.8126 19.0445 41.6137 18.5854 40.1139 18.5854ZM40.0681 22.3293C42.6805 22.3293 44.6035 24.3564 44.6035 26.8044C44.6035 29.4 42.4834 31.2936 40.1386 31.2936C37.368 31.2936 35.6243 29.1047 35.6243 26.8114C35.6243 24.2978 37.5929 22.3293 40.0681 22.3293ZM40.1111 40.1966C42.4558 40.1966 44.576 38.289 44.576 35.6934H48.5048C48.5048 40.6532 44.6116 43.9475 40.1252 43.9475C35.3979 43.9475 31.6398 40.5807 31.6398 35.6934H35.5897C35.5897 37.9866 37.3404 40.1966 40.1111 40.1966ZM50.0918 34.6134V19.0444H53.9853V34.6134H50.0918ZM57.766 22.5317V34.6134H61.6596V22.5317H63.8038V19.0445H61.6596V14.2635H57.766V19.0445H55.6782V22.5317H57.766ZM64.3082 26.9309C64.3082 22.4027 67.5416 18.5748 72.5573 18.5748C78.0799 18.5748 80.556 23.0499 80.556 27.3141V28.3827H68.4239C68.9961 30.4756 70.6363 31.6169 72.6878 31.6169C75.1487 31.6169 77.1139 29.5042 77.1139 29.5042L79.7166 32.102C79.7166 32.102 77.3828 35.0549 72.6384 35.0549C67.5524 35.0549 64.3082 31.6103 64.3082 26.9309ZM76.472 25.233C76.0617 22.9482 74.2275 21.9918 72.4338 21.9918C70.0506 21.9918 68.6411 23.6269 68.3181 25.233H76.472ZM90.2949 35.0569C85.2651 35.0569 81.8378 31.2384 81.8378 26.7361C81.8378 22.0896 85.7112 18.5719 90.2788 18.5719C94.6943 18.5719 96.9544 21.6789 96.9544 21.6789L94.2384 24.374C94.2384 24.374 92.665 22.3477 90.2603 22.3477C87.5951 22.3477 85.7727 24.38 85.7727 26.7956C85.7727 29.3463 87.7112 31.3033 90.2303 31.3033C92.6738 31.3033 94.2346 29.2803 94.2346 29.2803L96.9778 31.9739C96.9778 31.9739 94.7397 35.0569 90.2949 35.0569ZM98.3944 12.4636V34.6246H102.288V26.2439C102.288 23.5313 104.103 22.3705 106.15 22.3705C107.946 22.3705 109.567 23.4473 109.567 26.043V34.6246H113.461V25.4565C113.461 21.5928 111.099 18.5719 107.022 18.5719C103.779 18.5719 102.288 20.6057 102.288 20.6057V12.4636H98.3944Z" clip-rule="evenodd" fill-rule="evenodd"></path>
</svg>
