
<svg xmlns="http://www.w3.org/2000/svg" fill="none" viewBox="0 0 139 56" height="56" width="139">
<path fill="white" d="M21.6394 19.9078C24.0843 16.6022 26.785 14 30.24 14C36.7643 14 42.1352 22.3034 42.1352 32.1903C42.1352 38.2221 39.5392 42 34.8745 42C30.8109 42 28.5684 39.7174 24.5434 32.9821L22.4772 29.5062C21.9873 28.6804 21.521 27.9101 21.0782 27.1952C19.8147 29.4296 17.9779 32.6731 17.9779 32.6731C13.5717 40.3753 11.0932 42 7.6469 42C2.85868 42 0 38.2731 0 32.3641C0 22.9214 5.25241 14 12.1076 14C15.47 14 18.2797 15.63 21.6394 19.9078ZM7.82069 37.4428C9.80965 37.4428 11.0455 36.1876 14.6179 30.5876C14.6179 30.5876 16.2425 28.0076 18.9243 23.8941C16.1 19.8508 14.2561 18.5766 12.0497 18.5766C7.97517 18.5766 4.55724 25.5862 4.55724 32.4414C4.55724 35.6458 5.77379 37.4428 7.82069 37.4428ZM25.6303 25.7625L28.1007 29.8826C31.9642 36.0989 32.9363 37.4428 34.971 37.4428C37.094 37.4428 38.1186 35.6276 38.1186 32.4993C38.1186 24.2924 34.4883 17.611 29.9503 17.611C27.766 17.611 25.9294 19.3234 23.7028 22.76C24.3192 23.6743 24.9617 24.6752 25.6303 25.7625ZM50.9996 14.8997H56.2657L65.22 31.0974L74.1743 14.8997H79.3264V41.5155H75.0299V21.1165L67.1782 35.2419H63.1478L55.2961 21.1165V41.5155H50.9996V14.8997ZM93.1852 41.9908C91.1952 41.9908 89.4462 41.5504 87.9381 40.6695C86.4297 39.7887 85.2542 38.5688 84.4115 37.0098C83.5685 35.4509 83.1471 33.6638 83.1473 31.6487C83.1473 29.6082 83.5592 27.8021 84.383 26.2304C85.2068 24.659 86.3507 23.4296 87.8146 22.5421C89.2785 21.6552 90.961 21.2116 92.862 21.2113C94.7504 21.2113 96.3759 21.6581 97.7385 22.5516C99.1007 23.4453 100.149 24.6969 100.885 26.3064C101.62 27.9162 101.987 29.8046 101.987 31.9718V33.1503H87.4058C87.672 34.773 88.3279 36.0499 89.3735 36.9812C90.4191 37.9128 91.7404 38.3786 93.3373 38.3785C94.6173 38.3785 95.72 38.1884 96.6453 37.8081C97.5703 37.4279 98.4385 36.8513 99.2499 36.0782L101.531 38.8728C99.2623 40.9516 96.4803 41.991 93.1852 41.9908ZM96.3221 26.2018C95.4221 25.283 94.2434 24.8236 92.786 24.8234C91.3664 24.8234 90.1782 25.2924 89.2214 26.2304C88.2643 27.1683 87.6591 28.4294 87.4058 30.0137H97.8621C97.7352 28.3913 97.2219 27.1207 96.3221 26.2018ZM103.243 25.2039H107.197V34.6145C107.197 39.5067 109.434 41.9528 113.908 41.9528C114.528 41.9545 115.148 41.91 115.761 41.8197C116.298 41.7424 116.828 41.628 117.349 41.4774V37.9983C116.893 38.0746 116.474 38.1348 116.094 38.179C115.714 38.2233 115.251 38.2455 114.706 38.2455C113.477 38.2457 112.609 37.9289 112.102 37.295C111.595 36.6612 111.341 35.6029 111.341 34.1202V25.2039H117.349V21.6868H111.341V15.8694H107.197V21.6868H103.243V25.2039ZM138.946 41.5154H134.878V38.7398C134.155 39.7792 133.237 40.5808 132.121 41.1447C131.006 41.7084 129.738 41.9905 128.319 41.9908C126.57 41.9908 125.021 41.544 123.671 40.6503C122.321 39.7568 121.259 38.5275 120.486 36.9623C119.713 35.397 119.327 33.6067 119.327 31.5916C119.327 29.5638 119.72 27.7703 120.505 26.2112C121.291 24.6525 122.378 23.4294 123.766 22.5421C125.154 21.6552 126.747 21.2116 128.547 21.2113C129.903 21.2113 131.12 21.4744 132.197 22.0004C133.26 22.5145 134.18 23.2815 134.878 24.2342V21.6867H138.946V41.5154ZM134.802 28.6258C134.358 27.4978 133.658 26.6074 132.701 25.9546C131.744 25.302 130.638 24.9756 129.384 24.9756C127.609 24.9756 126.196 25.5713 125.144 26.7626C124.092 27.954 123.566 29.5637 123.566 31.5916C123.566 33.6323 124.073 35.2483 125.087 36.4395C126.101 37.6309 127.476 38.2266 129.213 38.2265C130.492 38.2265 131.633 37.8969 132.634 37.2378C133.636 36.5791 134.358 35.6919 134.802 34.5763V28.6258Z" clip-rule="evenodd" fill-rule="evenodd"></path>
</svg>
