
<svg xmlns="http://www.w3.org/2000/svg" fill="none" viewBox="0 0 173 56" height="56" width="173">
<path fill="white" d="M163.599 26.4195V29.9588H166.116V33.4704C166.124 33.7842 166.106 34.1226 166.052 34.3934C165.952 35.0484 165.322 36.1637 163.535 36.1637C161.759 36.1637 161.141 35.0484 161.034 34.3934C160.989 34.1226 160.969 33.7842 160.969 33.4704V22.3791C160.969 21.9867 160.996 21.5573 161.08 21.2323C161.202 20.6412 161.733 19.4754 163.522 19.4754C165.401 19.4754 165.869 20.7044 165.977 21.2323C166.048 21.582 166.052 22.1684 166.052 22.1684V23.5152H172.237V22.719C172.237 22.719 172.265 21.8883 172.19 21.113C171.725 16.5606 167.929 15.1203 163.577 15.1203C159.216 15.1203 155.498 16.574 154.956 21.113C154.907 21.528 154.832 22.2747 154.832 22.719V32.922C154.832 33.3663 154.847 33.7104 154.93 34.5224C155.334 38.9496 159.216 40.5189 163.559 40.5189C167.929 40.5189 171.785 38.9496 172.196 34.5224C172.268 33.7104 172.276 33.3663 172.286 32.922V26.4195H163.599ZM120.953 15.7731H114.742V33.7263C114.752 34.0391 114.742 34.3906 114.688 34.6483C114.558 35.251 114.041 36.4108 112.328 36.4108C110.636 36.4108 110.106 35.251 109.986 34.6483C109.924 34.3906 109.916 34.0391 109.924 33.7263V15.7731H103.715V33.1691C103.707 33.6175 103.743 34.5337 103.769 34.7736C104.198 39.3067 107.813 40.7784 112.328 40.7784C116.851 40.7784 120.464 39.3067 120.901 34.7736C120.935 34.5337 120.98 33.6175 120.953 33.1691V15.7731ZM63.886 15.7731L60.7877 34.7431L57.6914 15.7731H47.6726L47.1413 40.0412H53.2791L53.4453 17.5755L57.6684 40.0412H63.8957L68.1226 17.5755L68.2894 40.0412H74.4427L73.8933 15.7731H63.886ZM26.792 15.7731L22.2428 40.0412H28.8767L32.3048 17.5755L35.6505 40.0412H42.2384L37.7082 15.7731H26.792ZM142.66 35.3118L136.876 15.7731H127.763V39.7881H133.792L133.442 19.6244L139.653 39.7881H148.393V15.7731H142.325L142.66 35.3118ZM86.8952 22.089C86.7861 21.6097 86.8176 21.1005 86.8741 20.8344C87.0497 20.0575 87.5779 19.2102 89.0998 19.2102C90.5182 19.2102 91.3497 20.084 91.3497 21.3953V22.8792H97.4043V21.1878C97.4043 15.9588 92.6603 15.1374 89.2256 15.1374C84.8997 15.1374 81.3669 16.5466 80.7218 20.481C80.5512 21.5517 80.5089 22.5022 80.7804 23.715C81.8324 28.6207 90.475 30.0439 91.7294 33.1463C91.9508 33.734 91.8874 34.4835 91.7745 34.925C91.5866 35.7324 91.0369 36.5445 89.4075 36.5445C87.8794 36.5445 86.9595 35.6764 86.9595 34.3679L86.9576 32.0389H80.4408V33.8902C80.4408 39.2546 84.6929 40.8732 89.2726 40.8732C93.6587 40.8732 97.2813 39.3921 97.8625 35.3772C98.1397 33.3028 97.9306 31.9516 97.8193 31.4427C96.8039 26.4111 87.5924 24.8976 86.8952 22.089ZM7.02758 22.0294C6.90869 21.5402 6.93644 21.0239 7.00266 20.7546C7.17042 19.9815 7.70177 19.1193 9.25042 19.1193C10.6868 19.1193 11.5325 20.0014 11.5325 21.3233V22.8253H17.6581V21.1205C17.6581 15.8414 12.8415 15 9.3693 15C5.00718 15 1.44287 16.4309 0.790744 20.3938C0.612261 21.4816 0.581663 22.4386 0.839612 23.6648C1.90295 28.6263 10.631 30.061 11.9009 33.2006C12.1386 33.7842 12.0667 34.5337 11.9488 34.9924C11.7473 35.8082 11.1932 36.6318 9.55031 36.6318C8.01617 36.6318 7.09853 35.7486 7.09853 34.4221L7.09001 32.0868H0.5V33.9425C0.5 39.3684 4.81229 41 9.42764 41C13.8648 41 17.5086 39.5058 18.103 35.4445C18.3985 33.3511 18.1768 31.9887 18.0772 31.472C17.0406 26.3787 7.72669 24.8701 7.02758 22.0294Z"></path>
</svg>
