
<svg xmlns="http://www.w3.org/2000/svg" fill="none" viewBox="0 0 81 56" height="56" width="81">
<path fill="white" d="M6.03694 36.3175C5.43583 35.6752 4.96544 34.9018 4.62568 33.9972C4.28592 33.0927 4.11608 32.09 4.11608 30.9888V14H0V31.2247C0 32.8503 0.267854 34.3249 0.803648 35.6489C1.33936 36.973 2.07118 38.1067 2.99887 39.0506C3.92655 39.9944 5.02425 40.7219 6.2917 41.2331C7.55923 41.7443 8.9247 42 10.3883 42C11.8256 42 13.1649 41.7378 14.4063 41.2135C15.6477 40.6891 16.7258 39.9419 17.6404 38.9719V41.5281H21.7173V14H17.6012V30.9888C17.6012 32.09 17.4314 33.0862 17.0916 33.9776C16.7519 34.869 16.2749 35.6358 15.6608 36.2781C15.0466 36.9204 14.328 37.4185 13.5048 37.7725C12.6815 38.1264 11.7995 38.3034 10.8587 38.3034C9.89168 38.3034 8.9966 38.1331 8.17335 37.7922C7.35019 37.4514 6.63805 36.9598 6.03694 36.3175ZM28.8123 24.0281V14H24.8531V41.528H28.7731V39.0111C29.6878 39.9287 30.7528 40.6563 31.968 41.1937C33.1832 41.7312 34.4964 41.9999 35.9077 41.9999C37.3711 41.9999 38.7431 41.7247 40.0238 41.1741C41.3043 40.6236 42.4149 39.8764 43.3558 38.9325C44.2967 37.9888 45.0415 36.8811 45.5903 35.6095C46.1391 34.338 46.4135 32.9812 46.4135 31.5394C46.4135 30.0974 46.1391 28.7341 45.5903 27.4494C45.0415 26.1648 44.2967 25.0506 43.3558 24.1067C42.4149 23.1629 41.3043 22.4157 40.0238 21.8651C38.7431 21.3145 37.3712 21.0393 35.9077 21.0393C34.4965 21.0393 33.1898 21.308 31.9876 21.8455C30.7855 22.383 29.727 23.1105 28.8123 24.0281ZM30.7332 36.4551C30.106 35.8259 29.6159 35.0918 29.2631 34.2528C28.9103 33.4139 28.7339 32.5094 28.734 31.5394C28.734 30.5693 28.9169 29.6582 29.2828 28.8062C29.6487 27.9541 30.1453 27.2135 30.7724 26.5843C31.3997 25.9551 32.1314 25.4636 32.9677 25.1096C33.804 24.7556 34.6925 24.5786 35.6333 24.5786C36.5741 24.5786 37.4626 24.7557 38.2989 25.1096C39.1353 25.4635 39.8604 25.9551 40.4746 26.5843C41.0887 27.2135 41.5787 27.9541 41.9446 28.8062C42.3105 29.6582 42.4934 30.5693 42.4934 31.5394C42.4934 32.5094 42.3105 33.4139 41.9446 34.2528C41.5787 35.0918 41.0887 35.826 40.4746 36.4551C39.8603 37.0844 39.1352 37.5825 38.2989 37.9495C37.4627 38.3166 36.5742 38.5001 35.6333 38.5001C34.6663 38.5001 33.7648 38.3166 32.9284 37.9495C32.0921 37.5825 31.3604 37.0843 30.7332 36.4551ZM48.6475 27.4888C49.1701 26.2304 49.889 25.1228 50.8035 24.1658C51.7181 23.2089 52.8028 22.4552 54.0573 21.9046C55.3117 21.3541 56.6707 21.0788 58.1341 21.0788C59.5715 21.0788 60.9044 21.341 62.1327 21.8653C63.3609 22.3896 64.4193 23.1172 65.3079 24.0479C66.1965 24.9786 66.8891 26.0798 67.3855 27.3513C67.8821 28.6228 68.1303 30.0058 68.1303 31.5002V32.798H51.862C51.9928 33.6107 52.2541 34.3645 52.6461 35.0591C53.0381 35.7539 53.5281 36.3569 54.1161 36.8681C54.7041 37.3794 55.3705 37.7793 56.1153 38.0675C56.8602 38.3559 57.6506 38.5002 58.487 38.5002C60.8652 38.5002 62.7861 37.517 64.2496 35.5507L67.1112 37.6742C66.1181 39.0113 64.8899 40.0601 63.4264 40.8203C61.9628 41.5806 60.3164 41.9608 58.4871 41.9608C56.9974 41.9608 55.6058 41.6985 54.3122 41.1742C53.0185 40.6499 51.8948 39.9158 50.9409 38.9719C49.9871 38.028 49.2357 36.9204 48.6869 35.6489C48.1381 34.3774 47.8637 32.9944 47.8637 31.5C47.8635 30.0844 48.1249 28.7473 48.6475 27.4888ZM54.1553 25.9354C53.0446 26.8661 52.3063 28.1049 51.9404 29.6517H64.132C63.7922 28.1049 63.067 26.8661 61.9562 25.9354C60.8455 25.0048 59.5454 24.5394 58.0558 24.5394C56.5661 24.5394 55.266 25.0048 54.1553 25.9354ZM74.2846 30.1236C74.2846 28.5505 74.7028 27.3052 75.5391 26.3876C76.3753 25.47 77.4468 25.0113 78.7535 25.0112H80.3999V21.3146H79.0279C77.9302 21.3146 76.9829 21.5505 76.1858 22.0225C75.3888 22.4944 74.7419 23.1368 74.2453 23.9495V21.472H70.3253V41.5282H74.2846V30.1236Z" clip-rule="evenodd" fill-rule="evenodd"></path>
</svg>
